<?xml version="1.0" encoding="utf-8"?>
<!-- Generator: Adobe Illustrator 19.0.1, SVG Export Plug-In . SVG Version: 6.00 Build 0)  -->
<svg version="1.1" id="Слой_1" xmlns="http://www.w3.org/2000/svg" xmlns:xlink="http://www.w3.org/1999/xlink" x="0px" y="0px"
	 viewBox="0 0 320 230" style="enable-background:new 0 0 320 230;" xml:space="preserve">
<style type="text/css">
	.st0{fill:#70652C;}
	.st1{font-family:'ComicSansMS';}
	.st2{font-size:21px;}
	.st3{font-family:'SegoePrint';}
	.st4{font-size:14px;}
</style>
<g>
	<path class="st0" d="M280.5,89.2c-1.3-3.5-4.6-6.3-8.4-4.3c-1.4,0.7-2.4,1.6-2.7,3.3c-0.3,1.6,0.6,3.2,2.2,3.7c0.1,0,0.1,0,0.2,0
		c0.2,0.1,0.3,0.1,0.5,0.1c0.9,0,1.7-0.8,1.7-1.7c0-1-0.8-1.7-1.7-1.7c-0.3,0-0.6,0.1-0.9,0.3c-0.2-0.6-0.2-1.2,0-1.8
		c0.6-2.2,3.1-1.8,4.6-0.6c2.4,1.9,3.2,5.1,3.5,8c0.8,7,1.6,16.4-3.8,21.8c-0.1,0.1-0.3,0.3-0.4,0.4c-0.3-0.1-0.5-0.1-0.4,0
		c0.1,0.1,0.1,0.1,0.2,0.2c-0.1,0.1-0.1,0.1-0.2,0.2c-0.1,0.1,0.1,0.1,0.4,0c0.1,0.1,0.3,0.3,0.4,0.4c5.5,5.4,4.6,14.8,3.8,21.8
		c-0.3,2.9-1.1,6.1-3.5,8c-1.5,1.2-4,1.6-4.6-0.6c-0.2-0.6-0.1-1.3,0-1.8c0.3,0.2,0.6,0.3,0.9,0.3c0.9,0,1.7-0.8,1.7-1.7
		c0-1-0.8-1.7-1.7-1.7c-0.2,0-0.4,0-0.5,0.1c-0.1,0-0.2,0-0.2,0c-1.6,0.5-2.4,2-2.2,3.7c0.3,1.7,1.3,2.6,2.7,3.3
		c3.8,1.9,7.1-0.9,8.4-4.3c1.5-4.1,1.6-9.4,1.4-13.7c-0.1-3.2-0.8-6.5-2.2-9.3c1.7,1.7,3.3,3.5,4.7,5.3c-0.7,2.7-0.8,5.6-0.8,8.2
		c0.1,3.4,0.6,7.5,3,10c2.5,2.7,4.9,0.8,5.5-2.3c1-4.9-1.7-9.4-4.4-13.3c-0.4-0.6-0.9-1.2-1.3-1.8c0.4-1.2,0.9-2.4,1.5-3.5
		c1.5-2.6,4.3-4.2,7.3-3.8c2.6,0.4,2.6,3.3,1.9,5.1c-0.5,1.1-1.7,1.9-2.3,1.1c0.8-0.2,1.3-0.9,1.3-1.7c0-1-0.8-1.7-1.7-1.7
		c-0.9,0-1.7,0.8-1.7,1.7c0,0,0,0,0,0c-0.1,0-0.1,0-0.1,0c0.3,2.4,3.5,3.9,5.5,2.6c1.6-1,1.6-3.7,0.7-5.2c-0.7-1.2-2.1-1.9-3.3-2.4
		c-3.4-1.5-6.8-0.4-9.1,2.4c-0.8,1-1.4,2.1-1.8,3.3c-2.4-2.7-5-5.2-7.7-7.6c0,0,0,0,0,0c-0.2-0.2-0.4-0.3-0.5-0.5c0,0,0,0,0,0
		c0,0-0.1-0.1-0.1-0.1c-0.1-0.1-0.4-0.2-0.8-0.4c0.3-0.1,0.6-0.3,0.8-0.4c0,0,0.1-0.1,0.1-0.1c0,0,0,0,0,0c0.2-0.2,0.4-0.3,0.5-0.5
		c0,0,0,0,0,0c2.7-2.4,5.3-4.9,7.7-7.6c0.4,1.2,1,2.3,1.8,3.3c2.3,2.8,5.7,3.9,9.1,2.4c1.2-0.5,2.6-1.2,3.3-2.4
		c0.8-1.5,0.9-4.2-0.7-5.2c-2-1.3-5.2,0.2-5.5,2.6c0,0,0,0,0.1,0c0,0,0,0,0,0c0,1,0.8,1.7,1.7,1.7c1,0,1.7-0.8,1.7-1.7
		c0-0.8-0.6-1.5-1.3-1.7c0.6-0.8,1.8,0,2.3,1.1c0.7,1.8,0.7,4.7-1.9,5.1c-3,0.4-5.7-1.1-7.3-3.8c-0.6-1-1.1-2.2-1.5-3.5
		c0.5-0.6,0.9-1.2,1.3-1.8c2.7-3.9,5.4-8.4,4.4-13.3c-0.6-3.1-2.9-5.1-5.5-2.3c-2.4,2.6-3,6.6-3,10c-0.1,2.6,0.1,5.5,0.8,8.2
		c-1.5,1.9-3.1,3.6-4.7,5.3c1.5-2.8,2.1-6.1,2.2-9.3C282.1,98.5,282,93.3,280.5,89.2z M289.3,134c1.3,2.6,1.4,6.3,0.5,9
		c-0.2,0.6-0.6,1.2-1.1,1.7c-0.7,0.8-0.8,0.1-1.2-0.6c-0.7-1.2-1.1-2.6-1.4-3.9c-0.9-3.5-0.9-7.7,0-11.5
		C287.3,130.4,288.3,132.1,289.3,134z M286.1,93.1c0.3-1.3,0.7-2.7,1.4-3.9c0.4-0.7,0.4-1.4,1.2-0.6c0.5,0.5,0.9,1,1.1,1.7
		c1,2.7,0.9,6.4-0.5,9c-1,1.9-2,3.7-3.2,5.4C285.1,100.8,285.2,96.6,286.1,93.1z"/>
	<g>
		<g>
			<g>
				<path class="st0" d="M61.7,24.2l0,4.6c14.7,0,30,4.6,44.7,9.1c13.1,4,25.5,7.8,36.2,7.8c8.3,0,14.8-2.2,20-6.8
					c5.1,4.6,11.7,6.8,20,6.8c10.7,0,23.1-3.8,36.2-7.8c14.8-4.5,30.1-9.1,44.7-9.1c0.5,0,0.9,0,1.4,0c9.2,0.2,16.3,2.8,20.9,7.8
					c6.6,7.1,7.3,17.7,7,23.3l-0.1,3.2l2.9,1.2c9.6,4,19.7,23.3,19.7,51.4c0,28-10.2,47.4-19.7,51.4l-2.9,1.2l0.1,3.2
					c0.2,5.7-0.4,16.3-7,23.3c-4.6,5-11.7,7.6-20.9,7.8c-0.5,0-0.9,0-1.4,0c-14.7,0-30-4.6-44.7-9.1c-13.1-4-25.5-7.8-36.2-7.8
					c-8.3,0-14.8,2.2-20,6.8c-5.1-4.6-11.7-6.8-20-6.8c-10.7,0-23.1,3.8-36.2,7.8c-14.8,4.5-30.1,9.1-44.7,9.1c-0.5,0-0.9,0-1.4,0
					c-11.1-0.2-19-4-23.5-11.2c-3.8-6.2-4.6-13.7-4.5-18.9l0.1-4.7h-4.6c-0.1,0-0.2,0-0.3,0c-5.6-0.1-11.4-5.2-15.9-14.1
					c-5-10.1-7.8-23.6-7.8-38.1s2.8-28,7.8-38.1c4.4-8.9,10.2-14,15.9-14.1c0.1,0,0.2,0,0.3,0l4.7,0.1l-0.1-4.7
					C32.3,53.6,33,46.1,36.9,40c4.5-7.2,12.4-10.9,23.5-11.1c0.5,0,0.9,0,1.4,0V24.2 M263.6,24.2c-28.7,0-59.3,16.9-80.9,16.9
					c-7.6,0-14-2.1-18.9-7.6h0c-0.2-0.4-0.6-0.7-1-0.7c-0.5,0-0.8,0.3-1,0.7h-0.1c-4.9,5.6-11.4,7.6-18.9,7.6
					c-21.6,0-52.3-16.9-80.9-16.9c-0.5,0-1,0-1.5,0C31,24.8,27.7,47.5,27.8,58.9c-0.1,0-0.2,0-0.2,0C12,58.9-0.7,84.3-0.7,115.7
					c0,31.4,12.7,56.8,28.3,56.8c0.1,0,0.2,0,0.2,0c-0.2,11.4,3.2,34.1,32.4,34.7c0.5,0,1,0,1.5,0c28.7,0,59.3-16.9,80.9-16.9
					c7.6,0,14,2.1,18.9,7.6h0.1c0.2,0.4,0.6,0.7,1,0.7c0.5,0,0.8-0.3,1-0.7h0c4.9-5.6,11.4-7.6,18.9-7.6c21.6,0,52.3,16.9,80.9,16.9
					c0.5,0,1,0,1.5,0c30.3-0.6,32.8-24.9,32.4-35.9c12.9-5.3,22.5-28.2,22.5-55.6c0-27.4-9.7-50.3-22.5-55.6
					c0.4-10.9-2.1-35.2-32.4-35.9C264.6,24.2,264.1,24.2,263.6,24.2L263.6,24.2z"/>
			</g>
			<g>
				<g>
					<path class="st0" d="M263.4,197.9l-1.8,0c-12.2-0.3-25-3.8-38.3-7.8l0,0l-3.8-1.2c-13.4-4.1-26.1-7.9-37.5-7.9
						c-6,0-11.5,1.1-16.1,3.4c0,0.2,0.1,0.5,0.1,0.7c0,2.1-1.7,3.8-3.7,3.8c-2.1,0-3.7-1.7-3.7-3.8c0-0.2,0-0.3,0-0.5
						c-4.7-2.4-10.3-3.6-16.5-3.6c-11.4,0-24.1,3.9-37.5,7.9l-2.9,0.9c-14,4.2-27.7,8.1-40.5,8.1c-0.4,0-0.9,0-1.3,0
						c-9.6-0.2-16-3.1-19.7-9c-3.1-5-3.8-11.3-3.8-15.7c0-0.2,0-0.4,0-0.7l0-0.3l2.8-9.7l-12,0.7c-0.2,0-0.3,0-0.5,0
						c-3.9-0.3-8.1-4.5-11.7-11.5c-4.6-9.3-7.3-22.4-7.3-36c0-13.5,2.7-26.7,7.3-36c3.6-7.1,7.8-11.3,11.6-11.5l0.1,0l0.2,0
						l12.2,1.2l-2.9-10.6l0-0.7c0-4.4,0.7-10.7,3.8-15.7c3.6-5.8,10.1-8.8,19.7-9c0.4,0,0.9,0,1.3,0c12.8,0,26.5,3.8,40.5,8.1
						l2.9,0.9c13.4,4.1,26.1,7.9,37.5,7.9c6.2,0,11.8-1.2,16.5-3.6c0.1-2,1.7-3.6,3.7-3.6c2.1,0,3.7,1.7,3.7,3.8c0,0,0,0.1,0,0.1
						c4.6,2.2,10,3.3,16,3.3c11.4,0,24.1-3.9,37.5-7.9l2.9-0.9c14-4.2,27.7-8.1,40.5-8.1c0.4,0,0.9,0,1.3,0
						c7.9,0.2,13.9,2.3,17.6,6.3c4.8,5.1,5.8,12.8,5.8,18.3c0,0.6,0,1.1,0,1.7l0,0.2l-1.9,8.5l7.4,0.1l0.3,0.1
						c7,3,16.8,19.6,16.9,47c0,27.5-9.9,44.1-16.9,47l-0.3,0.1l-9.2-0.1l3.8,8.6l0,0.3c0,0.5,0,1,0,1.6c0,5.5-1,13.2-5.8,18.3
						c-3.8,4-9.7,6.1-17.6,6.3C264,197.9,263.7,197.9,263.4,197.9L263.4,197.9z M262.9,196.1l1.4,0c7.4-0.2,12.9-2.1,16.3-5.7
						c4.4-4.7,5.3-11.9,5.3-17.1c0-0.5,0-1,0-1.5l-4.9-10.9l11.7,0.2c6.5-2.9,15.6-18.8,15.7-45.3c0-26.5-9.2-42.4-15.7-45.3
						l-9.3-0.1l2.4-10.6c0-0.5,0-1,0-1.5c0-5.2-0.9-12.4-5.3-17.1c-3.4-3.6-8.9-5.6-16.3-5.7c-0.4,0-0.8,0-1.3,0
						c-12.6,0-26.1,3.8-40,8l-2.9,0.9c-13.6,4.1-26.4,8-38.1,8c-6.5,0-12.4-1.3-17.4-3.8l-0.6-0.3l0.2-0.7c0-0.2,0.1-0.3,0.1-0.4
						c0-1.1-0.8-1.9-1.9-1.9c-1,0-1.9,0.9-1.9,1.9c0,0.1,0,0.2,0,0.3l0.1,0.7l-0.6,0.3c-5.1,2.7-11.1,4-17.9,4
						c-11.7,0-24.5-3.9-38.1-8l-2.9-0.9c-13.9-4.2-27.4-8-39.9-8c-0.4,0-0.8,0-1.3,0C51,35.5,45,38.2,41.7,43.5
						c-2.9,4.6-3.5,10.6-3.5,14.7l0,0.5l3.5,12.8L26.9,70c-3.1,0.2-6.9,4.1-10.1,10.5c-4.5,9.1-7.1,21.9-7.1,35.2
						c0,13.3,2.6,26.1,7.1,35.2c3.2,6.4,7,10.3,10.1,10.5c0.1,0,0.2,0,0.4,0l14.5-0.8l-3.5,12.1c0,0.2,0,0.4,0,0.6
						c0,4.2,0.6,10.1,3.5,14.7c3.3,5.3,9.2,7.9,18.2,8.1c0.4,0,0.8,0,1.2,0c12.6,0,26.1-3.8,40-8l2.9-0.9c13.6-4.1,26.4-8,38-8
						c6.8,0,12.9,1.4,18,4.1l0.7,0.4l-0.3,0.8c-0.1,0.2-0.1,0.5-0.1,0.7c0,1.1,0.8,1.9,1.9,1.9c1,0,1.9-0.9,1.9-1.9
						c0-0.3-0.1-0.5-0.2-0.8l-0.4-0.8l0.8-0.4c5.1-2.6,11-3.9,17.6-3.9c11.7,0,24.5,3.9,38.1,8l2.9,0.9l-0.2,0.7l0,0l0.2-0.7
						c13.7,4.2,27.1,7.9,39.5,8L262.9,196.1z"/>
				</g>
			</g>
		</g>
		<g>
			<g>
				<g>
					<path class="st0" d="M73.7,126.2L73.7,126.2L73.7,126.2L73.7,126.2L73.7,126.2c-0.1,0-0.5,0.4-0.9,0.9c-0.4,0.5,0,1.4,0.9,1.4
						h0h0c0.9,0,1.3-0.9,0.9-1.4C74.2,126.6,73.9,126.2,73.7,126.2z"/>
					<path class="st0" d="M73,125.5c0-0.1-0.4-0.5-0.9-0.9c-0.5-0.4-1.4,0-1.4,0.9c0,0.9,0.9,1.3,1.4,0.9
						C72.6,126,73,125.7,73,125.5z"/>
					<path class="st0" d="M73.7,124.8L73.7,124.8L73.7,124.8L73.7,124.8L73.7,124.8c0.1,0,0.5-0.4,0.9-0.9c0.4-0.5,0-1.4-0.9-1.4h0
						h0c-0.9,0-1.3,0.9-0.9,1.4C73.2,124.4,73.6,124.8,73.7,124.8z"/>
					<path class="st0" d="M75.4,124.6c-0.5,0.4-0.9,0.8-0.9,0.9c0,0.1,0.4,0.5,0.9,0.9c0.5,0.4,1.4,0,1.4-0.9
						C76.8,124.6,75.9,124.2,75.4,124.6z"/>
				</g>
				<g>
					<path class="st0" d="M80.8,126.2L80.8,126.2L80.8,126.2L80.8,126.2L80.8,126.2c-0.1,0-0.5,0.4-0.9,0.9c-0.4,0.5,0,1.4,0.9,1.4
						h0h0c0.9,0,1.3-0.9,0.9-1.4C81.3,126.6,80.9,126.2,80.8,126.2z"/>
					<path class="st0" d="M80,125.5c0-0.1-0.4-0.5-0.9-0.9c-0.5-0.4-1.4,0-1.4,0.9c0,0.9,0.9,1.3,1.4,0.9
						C79.6,126,80,125.7,80,125.5z"/>
					<path class="st0" d="M80.8,124.8L80.8,124.8L80.8,124.8L80.8,124.8L80.8,124.8c0.1,0,0.5-0.4,0.9-0.9c0.4-0.5,0-1.4-0.9-1.4h0
						h0c-0.9,0-1.3,0.9-0.9,1.4C80.2,124.4,80.6,124.8,80.8,124.8z"/>
					<path class="st0" d="M82.4,124.6c-0.5,0.4-0.9,0.8-0.9,0.9c0,0.1,0.4,0.5,0.9,0.9c0.5,0.4,1.4,0,1.4-0.9
						C83.8,124.6,82.9,124.2,82.4,124.6z"/>
				</g>
				<g>
					<path class="st0" d="M87.8,126.2L87.8,126.2L87.8,126.2L87.8,126.2L87.8,126.2c-0.1,0-0.5,0.4-0.9,0.9c-0.4,0.5,0,1.4,0.9,1.4
						h0l0,0c0.9,0,1.3-0.9,0.9-1.4C88.3,126.6,87.9,126.2,87.8,126.2z"/>
					<path class="st0" d="M87.1,125.5c0-0.1-0.4-0.5-0.9-0.9c-0.5-0.4-1.4,0-1.4,0.9c0,0.9,0.9,1.3,1.4,0.9
						C86.7,126,87.1,125.7,87.1,125.5z"/>
					<path class="st0" d="M87.8,124.8L87.8,124.8L87.8,124.8L87.8,124.8L87.8,124.8c0.1,0,0.5-0.4,0.9-0.9c0.4-0.5,0-1.4-0.9-1.4
						l0,0h0c-0.9,0-1.3,0.9-0.9,1.4C87.3,124.4,87.6,124.8,87.8,124.8z"/>
					<path class="st0" d="M89.4,124.6c-0.5,0.4-0.9,0.8-0.9,0.9c0,0.1,0.4,0.5,0.9,0.9c0.5,0.4,1.4,0,1.4-0.9
						C90.8,124.6,90,124.2,89.4,124.6z"/>
				</g>
				<g>
					<path class="st0" d="M94.8,126.2L94.8,126.2L94.8,126.2L94.8,126.2L94.8,126.2c-0.1,0-0.5,0.4-0.9,0.9c-0.4,0.5,0,1.4,0.9,1.4
						h0h0c0.9,0,1.3-0.9,0.9-1.4C95.3,126.6,95,126.2,94.8,126.2z"/>
					<path class="st0" d="M94.1,125.5c0-0.1-0.4-0.5-0.9-0.9c-0.5-0.4-1.4,0-1.4,0.9c0,0.9,0.9,1.3,1.4,0.9
						C93.7,126,94.1,125.7,94.1,125.5z"/>
					<path class="st0" d="M94.8,124.8L94.8,124.8L94.8,124.8L94.8,124.8L94.8,124.8c0.1,0,0.5-0.4,0.9-0.9c0.4-0.5,0-1.4-0.9-1.4h0
						h0c-0.9,0-1.3,0.9-0.9,1.4C94.3,124.4,94.7,124.8,94.8,124.8z"/>
					<path class="st0" d="M96.5,124.6c-0.5,0.4-0.9,0.8-0.9,0.9c0,0.1,0.4,0.5,0.9,0.9c0.5,0.4,1.4,0,1.4-0.9
						C97.9,124.6,97,124.2,96.5,124.6z"/>
				</g>
				<g>
					<path class="st0" d="M101.8,126.2L101.8,126.2L101.8,126.2L101.8,126.2L101.8,126.2c-0.1,0-0.5,0.4-0.9,0.9
						c-0.4,0.5,0,1.4,0.9,1.4l0,0h0c0.9,0,1.3-0.9,0.9-1.4C102.4,126.6,102,126.2,101.8,126.2z"/>
					<path class="st0" d="M101.1,125.5c0-0.1-0.4-0.5-0.9-0.9c-0.5-0.4-1.4,0-1.4,0.9c0,0.9,0.9,1.3,1.4,0.9
						C100.7,126,101.1,125.7,101.1,125.5z"/>
					<path class="st0" d="M101.8,124.8L101.8,124.8L101.8,124.8L101.8,124.8L101.8,124.8c0.1,0,0.5-0.4,0.9-0.9
						c0.4-0.5,0-1.4-0.9-1.4h0l0,0c-0.9,0-1.3,0.9-0.9,1.4C101.3,124.4,101.7,124.8,101.8,124.8z"/>
					<path class="st0" d="M103.5,124.6c-0.5,0.4-0.9,0.8-0.9,0.9c0,0.1,0.4,0.5,0.9,0.9c0.5,0.4,1.4,0,1.4-0.9
						C104.9,124.6,104,124.2,103.5,124.6z"/>
				</g>
				<g>
					<path class="st0" d="M108.9,126.2L108.9,126.2L108.9,126.2L108.9,126.2L108.9,126.2c-0.1,0-0.5,0.4-0.9,0.9
						c-0.4,0.5,0,1.4,0.9,1.4h0l0,0c0.9,0,1.3-0.9,0.9-1.4C109.4,126.6,109,126.2,108.9,126.2z"/>
					<path class="st0" d="M108.2,125.5c0-0.1-0.4-0.5-0.9-0.9c-0.5-0.4-1.4,0-1.4,0.9c0,0.9,0.9,1.3,1.4,0.9
						C107.8,126,108.2,125.7,108.2,125.5z"/>
					<path class="st0" d="M108.9,124.8L108.9,124.8L108.9,124.8L108.9,124.8L108.9,124.8c0.1,0,0.5-0.4,0.9-0.9
						c0.4-0.5,0-1.4-0.9-1.4l0,0h0c-0.9,0-1.3,0.9-0.9,1.4C108.4,124.4,108.7,124.8,108.9,124.8z"/>
					<path class="st0" d="M110.5,124.6c-0.5,0.4-0.9,0.8-0.9,0.9c0,0.1,0.4,0.5,0.9,0.9c0.5,0.4,1.4,0,1.4-0.9
						C111.9,124.6,111.1,124.2,110.5,124.6z"/>
				</g>
				<g>
					<path class="st0" d="M115.9,126.2L115.9,126.2L115.9,126.2L115.9,126.2L115.9,126.2c-0.1,0-0.5,0.4-0.9,0.9
						c-0.4,0.5,0,1.4,0.9,1.4l0,0h0c0.9,0,1.3-0.9,0.9-1.4C116.4,126.6,116.1,126.2,115.9,126.2z"/>
					<path class="st0" d="M115.2,125.5c0-0.1-0.4-0.5-0.9-0.9c-0.5-0.4-1.4,0-1.4,0.9c0,0.9,0.9,1.3,1.4,0.9
						C114.8,126,115.2,125.7,115.2,125.5z"/>
					<path class="st0" d="M115.9,124.8L115.9,124.8L115.9,124.8L115.9,124.8L115.9,124.8c0.1,0,0.5-0.4,0.9-0.9
						c0.4-0.5,0-1.4-0.9-1.4h0l0,0c-0.9,0-1.3,0.9-0.9,1.4C115.4,124.4,115.8,124.8,115.9,124.8z"/>
					<path class="st0" d="M117.6,124.6c-0.5,0.4-0.9,0.8-0.9,0.9c0,0.1,0.4,0.5,0.9,0.9c0.5,0.4,1.4,0,1.4-0.9
						C119,124.6,118.1,124.2,117.6,124.6z"/>
				</g>
				<g>
					<path class="st0" d="M122.9,126.2L122.9,126.2L122.9,126.2L122.9,126.2L122.9,126.2c-0.1,0-0.5,0.4-0.9,0.9
						c-0.4,0.5,0,1.4,0.9,1.4h0l0,0c0.9,0,1.3-0.9,0.9-1.4C123.5,126.6,123.1,126.2,122.9,126.2z"/>
					<path class="st0" d="M122.2,125.5c0-0.1-0.4-0.5-0.9-0.9c-0.5-0.4-1.4,0-1.4,0.9c0,0.9,0.9,1.3,1.4,0.9
						C121.8,126,122.2,125.7,122.2,125.5z"/>
					<path class="st0" d="M122.9,124.8L122.9,124.8L122.9,124.8L122.9,124.8L122.9,124.8c0.1,0,0.5-0.4,0.9-0.9
						c0.4-0.5,0-1.4-0.9-1.4l0,0h0c-0.9,0-1.3,0.9-0.9,1.4C122.4,124.4,122.8,124.8,122.9,124.8z"/>
					<path class="st0" d="M124.6,124.6c-0.5,0.4-0.9,0.8-0.9,0.9c0,0.1,0.4,0.5,0.9,0.9c0.5,0.4,1.4,0,1.4-0.9
						C126,124.6,125.1,124.2,124.6,124.6z"/>
				</g>
				<g>
					<path class="st0" d="M130,126.2L130,126.2L130,126.2L130,126.2L130,126.2c-0.1,0-0.5,0.4-0.9,0.9c-0.4,0.5,0,1.4,0.9,1.4l0,0h0
						c0.9,0,1.3-0.9,0.9-1.4C130.5,126.6,130.1,126.2,130,126.2z"/>
					<path class="st0" d="M129.3,125.5c0-0.1-0.4-0.5-0.9-0.9c-0.5-0.4-1.4,0-1.4,0.9c0,0.9,0.9,1.3,1.4,0.9
						C128.9,126,129.3,125.7,129.3,125.5z"/>
					<path class="st0" d="M130,124.8L130,124.8L130,124.8L130,124.8L130,124.8c0.1,0,0.5-0.4,0.9-0.9c0.4-0.5,0-1.4-0.9-1.4h0l0,0
						c-0.9,0-1.3,0.9-0.9,1.4C129.4,124.4,129.8,124.8,130,124.8z"/>
					<path class="st0" d="M131.6,124.6c-0.5,0.4-0.9,0.8-0.9,0.9c0,0.1,0.4,0.5,0.9,0.9c0.5,0.4,1.4,0,1.4-0.9
						C133,124.6,132.2,124.2,131.6,124.6z"/>
				</g>
				<g>
					<path class="st0" d="M137,126.2L137,126.2L137,126.2L137,126.2L137,126.2c-0.1,0-0.5,0.4-0.9,0.9c-0.4,0.5,0,1.4,0.9,1.4
						c0,0,0,0,0,0h0c0.9,0,1.3-0.9,0.9-1.4C137.5,126.6,137.2,126.2,137,126.2z"/>
					<path class="st0" d="M136.3,125.5c0-0.1-0.4-0.5-0.9-0.9c-0.5-0.4-1.4,0-1.4,0.9c0,0.9,0.9,1.3,1.4,0.9
						C135.9,126,136.3,125.7,136.3,125.5z"/>
					<path class="st0" d="M137,124.8L137,124.8L137,124.8L137,124.8L137,124.8c0.1,0,0.5-0.4,0.9-0.9c0.4-0.5,0-1.4-0.9-1.4h0
						c0,0,0,0,0,0c-0.9,0-1.3,0.9-0.9,1.4C136.5,124.4,136.9,124.8,137,124.8z"/>
					<path class="st0" d="M138.7,124.6c-0.5,0.4-0.9,0.8-0.9,0.9c0,0.1,0.4,0.5,0.9,0.9c0.5,0.4,1.4,0,1.4-0.9
						C140,124.6,139.2,124.2,138.7,124.6z"/>
				</g>
				<g>
					<path class="st0" d="M144,126.2L144,126.2L144,126.2L144,126.2L144,126.2c-0.1,0-0.5,0.4-0.9,0.9c-0.4,0.5,0,1.4,0.9,1.4h0h0
						c0.9,0,1.3-0.9,0.9-1.4C144.6,126.6,144.2,126.2,144,126.2z"/>
					<path class="st0" d="M143.3,125.5c0-0.1-0.4-0.5-0.9-0.9c-0.5-0.4-1.4,0-1.4,0.9c0,0.9,0.9,1.3,1.4,0.9
						C142.9,126,143.3,125.7,143.3,125.5z"/>
					<path class="st0" d="M144,124.8L144,124.8L144,124.8L144,124.8L144,124.8c0.1,0,0.5-0.4,0.9-0.9c0.4-0.5,0-1.4-0.9-1.4h0h0
						c-0.9,0-1.3,0.9-0.9,1.4C143.5,124.4,143.9,124.8,144,124.8z"/>
					<path class="st0" d="M145.7,124.6c-0.5,0.4-0.9,0.8-0.9,0.9c0,0.1,0.4,0.5,0.9,0.9c0.5,0.4,1.4,0,1.4-0.9
						C147.1,124.6,146.2,124.2,145.7,124.6z"/>
				</g>
				<g>
					<path class="st0" d="M151.1,126.2L151.1,126.2L151.1,126.2L151.1,126.2L151.1,126.2c-0.1,0-0.5,0.4-0.9,0.9
						c-0.4,0.5,0,1.4,0.9,1.4l0,0c0,0,0,0,0,0c0.9,0,1.3-0.9,0.9-1.4C151.6,126.6,151.2,126.2,151.1,126.2z"/>
					<path class="st0" d="M150.4,125.5c0-0.1-0.4-0.5-0.9-0.9c-0.5-0.4-1.4,0-1.4,0.9c0,0.9,0.9,1.3,1.4,0.9
						C150,126,150.4,125.7,150.4,125.5z"/>
					<path class="st0" d="M151.1,124.8L151.1,124.8L151.1,124.8L151.1,124.8L151.1,124.8c0.1,0,0.5-0.4,0.9-0.9
						c0.4-0.5,0-1.4-0.9-1.4c0,0,0,0,0,0l0,0c-0.9,0-1.3,0.9-0.9,1.4C150.5,124.4,150.9,124.8,151.1,124.8z"/>
					<path class="st0" d="M152.7,124.6c-0.5,0.4-0.9,0.8-0.9,0.9c0,0.1,0.4,0.5,0.9,0.9c0.5,0.4,1.4,0,1.4-0.9
						C154.1,124.6,153.3,124.2,152.7,124.6z"/>
				</g>
				<g>
					<path class="st0" d="M158.1,126.2L158.1,126.2L158.1,126.2L158.1,126.2L158.1,126.2c-0.1,0-0.5,0.4-0.9,0.9
						c-0.4,0.5,0,1.4,0.9,1.4h0l0,0c0.9,0,1.3-0.9,0.9-1.4C158.6,126.6,158.3,126.2,158.1,126.2z"/>
					<path class="st0" d="M157.4,125.5c0-0.1-0.4-0.5-0.9-0.9c-0.5-0.4-1.4,0-1.4,0.9c0,0.9,0.9,1.3,1.4,0.9
						C157,126,157.4,125.7,157.4,125.5z"/>
					<path class="st0" d="M158.1,124.8L158.1,124.8L158.1,124.8L158.1,124.8L158.1,124.8c0.1,0,0.5-0.4,0.9-0.9
						c0.4-0.5,0-1.4-0.9-1.4l0,0h0c-0.9,0-1.3,0.9-0.9,1.4C157.6,124.4,158,124.8,158.1,124.8z"/>
					<path class="st0" d="M159.8,124.6c-0.5,0.4-0.9,0.8-0.9,0.9c0,0.1,0.4,0.5,0.9,0.9c0.5,0.4,1.4,0,1.4-0.9
						C161.1,124.6,160.3,124.2,159.8,124.6z"/>
				</g>
			</g>
			<g>
				<g>
					<path class="st0" d="M165.1,126.2L165.1,126.2L165.1,126.2L165.1,126.2L165.1,126.2c-0.1,0-0.5,0.4-0.9,0.9
						c-0.4,0.5,0,1.4,0.9,1.4h0l0,0c0.9,0,1.3-0.9,0.9-1.4C165.6,126.6,165.2,126.2,165.1,126.2z"/>
					<path class="st0" d="M164.4,125.5c0-0.1-0.4-0.5-0.9-0.9c-0.5-0.4-1.4,0-1.4,0.9c0,0.9,0.9,1.3,1.4,0.9
						C164,126,164.4,125.7,164.4,125.5z"/>
					<path class="st0" d="M165.1,124.8L165.1,124.8L165.1,124.8L165.1,124.8L165.1,124.8c0.1,0,0.5-0.4,0.9-0.9
						c0.4-0.5,0-1.4-0.9-1.4l0,0h0c-0.9,0-1.3,0.9-0.9,1.4C164.6,124.4,165,124.8,165.1,124.8z"/>
					<path class="st0" d="M166.7,124.6c-0.5,0.4-0.9,0.8-0.9,0.9c0,0.1,0.4,0.5,0.9,0.9c0.5,0.4,1.4,0,1.4-0.9
						C168.1,124.6,167.3,124.2,166.7,124.6z"/>
				</g>
				<g>
					<path class="st0" d="M172.1,126.2L172.1,126.2L172.1,126.2L172.1,126.2L172.1,126.2c-0.1,0-0.5,0.4-0.9,0.9
						c-0.4,0.5,0,1.4,0.9,1.4h0l0,0c0.9,0,1.3-0.9,0.9-1.4C172.7,126.6,172.3,126.2,172.1,126.2z"/>
					<path class="st0" d="M171.4,125.5c0-0.1-0.4-0.5-0.9-0.9c-0.5-0.4-1.4,0-1.4,0.9c0,0.9,0.9,1.3,1.4,0.9
						C171,126,171.4,125.7,171.4,125.5z"/>
					<path class="st0" d="M172.1,124.8L172.1,124.8L172.1,124.8L172.1,124.8L172.1,124.8c0.1,0,0.5-0.4,0.9-0.9
						c0.4-0.5,0-1.4-0.9-1.4l0,0h0c-0.9,0-1.3,0.9-0.9,1.4C171.6,124.4,172,124.8,172.1,124.8z"/>
					<path class="st0" d="M173.8,124.6c-0.5,0.4-0.9,0.8-0.9,0.9c0,0.1,0.4,0.5,0.9,0.9c0.5,0.4,1.4,0,1.4-0.9
						C175.2,124.6,174.3,124.2,173.8,124.6z"/>
				</g>
				<g>
					<path class="st0" d="M179.2,126.2L179.2,126.2L179.2,126.2L179.2,126.2L179.2,126.2c-0.1,0-0.5,0.4-0.9,0.9
						c-0.4,0.5,0,1.4,0.9,1.4h0h0c0.9,0,1.3-0.9,0.9-1.4C179.7,126.6,179.3,126.2,179.2,126.2z"/>
					<path class="st0" d="M178.5,125.5c0-0.1-0.4-0.5-0.9-0.9c-0.5-0.4-1.4,0-1.4,0.9c0,0.9,0.9,1.3,1.4,0.9
						C178.1,126,178.4,125.7,178.5,125.5z"/>
					<path class="st0" d="M179.2,124.8L179.2,124.8L179.2,124.8L179.2,124.8L179.2,124.8c0.1,0,0.5-0.4,0.9-0.9
						c0.4-0.5,0-1.4-0.9-1.4h0h0c-0.9,0-1.3,0.9-0.9,1.4C178.6,124.4,179,124.8,179.2,124.8z"/>
					<path class="st0" d="M180.8,124.6c-0.5,0.4-0.9,0.8-0.9,0.9c0,0.1,0.4,0.5,0.9,0.9c0.5,0.4,1.4,0,1.4-0.9
						C182.2,124.6,181.3,124.2,180.8,124.6z"/>
				</g>
				<g>
					<path class="st0" d="M186.2,126.2L186.2,126.2L186.2,126.2L186.2,126.2L186.2,126.2c-0.1,0-0.5,0.4-0.9,0.9
						c-0.4,0.5,0,1.4,0.9,1.4h0h0c0.9,0,1.3-0.9,0.9-1.4C186.7,126.6,186.3,126.2,186.2,126.2z"/>
					<path class="st0" d="M185.5,125.5c0-0.1-0.4-0.5-0.9-0.9c-0.5-0.4-1.4,0-1.4,0.9c0,0.9,0.9,1.3,1.4,0.9
						C185.1,126,185.5,125.7,185.5,125.5z"/>
					<path class="st0" d="M186.2,124.8L186.2,124.8L186.2,124.8L186.2,124.8L186.2,124.8c0.1,0,0.5-0.4,0.9-0.9
						c0.4-0.5,0-1.4-0.9-1.4h0h0c-0.9,0-1.3,0.9-0.9,1.4C185.7,124.4,186.1,124.8,186.2,124.8z"/>
					<path class="st0" d="M187.8,124.6c-0.5,0.4-0.9,0.8-0.9,0.9c0,0.1,0.4,0.5,0.9,0.9c0.5,0.4,1.4,0,1.4-0.9
						C189.2,124.6,188.4,124.2,187.8,124.6z"/>
				</g>
				<g>
					<path class="st0" d="M193.2,126.2L193.2,126.2L193.2,126.2L193.2,126.2L193.2,126.2c-0.1,0-0.5,0.4-0.9,0.9
						c-0.4,0.5,0,1.4,0.9,1.4l0,0h0c0.9,0,1.3-0.9,0.9-1.4C193.8,126.6,193.4,126.2,193.2,126.2z"/>
					<path class="st0" d="M192.5,125.5c0-0.1-0.4-0.5-0.9-0.9c-0.5-0.4-1.4,0-1.4,0.9c0,0.9,0.9,1.3,1.4,0.9
						C192.1,126,192.5,125.7,192.5,125.5z"/>
					<path class="st0" d="M193.2,124.8L193.2,124.8L193.2,124.8L193.2,124.8L193.2,124.8c0.1,0,0.5-0.4,0.9-0.9
						c0.4-0.5,0-1.4-0.9-1.4h0l0,0c-0.9,0-1.3,0.9-0.9,1.4C192.7,124.4,193.1,124.8,193.2,124.8z"/>
					<path class="st0" d="M194.9,124.6c-0.5,0.4-0.9,0.8-0.9,0.9c0,0.1,0.4,0.5,0.9,0.9c0.5,0.4,1.4,0,1.4-0.9
						C196.3,124.6,195.4,124.2,194.9,124.6z"/>
				</g>
				<g>
					<path class="st0" d="M200.3,126.2L200.3,126.2L200.3,126.2L200.3,126.2L200.3,126.2c-0.1,0-0.5,0.4-0.9,0.9
						c-0.4,0.5,0,1.4,0.9,1.4l0,0l0,0c0.9,0,1.3-0.9,0.9-1.4C200.8,126.6,200.4,126.2,200.3,126.2z"/>
					<path class="st0" d="M199.6,125.5c0-0.1-0.4-0.5-0.9-0.9c-0.5-0.4-1.4,0-1.4,0.9c0,0.9,0.9,1.3,1.4,0.9
						C199.2,126,199.5,125.7,199.6,125.5z"/>
					<path class="st0" d="M200.3,124.8L200.3,124.8L200.3,124.8L200.3,124.8L200.3,124.8c0.1,0,0.5-0.4,0.9-0.9
						c0.4-0.5,0-1.4-0.9-1.4l0,0l0,0c-0.9,0-1.3,0.9-0.9,1.4C199.7,124.4,200.1,124.8,200.3,124.8z"/>
					<path class="st0" d="M201.9,124.6c-0.5,0.4-0.9,0.8-0.9,0.9c0,0.1,0.4,0.5,0.9,0.9c0.5,0.4,1.4,0,1.4-0.9
						C203.3,124.6,202.4,124.2,201.9,124.6z"/>
				</g>
				<g>
					<path class="st0" d="M207.3,126.2L207.3,126.2L207.3,126.2L207.3,126.2L207.3,126.2c-0.1,0-0.5,0.4-0.9,0.9
						c-0.4,0.5,0,1.4,0.9,1.4l0,0l0,0c0.9,0,1.3-0.9,0.9-1.4C207.8,126.6,207.4,126.2,207.3,126.2z"/>
					<path class="st0" d="M206.6,125.5c0-0.1-0.4-0.5-0.9-0.9c-0.5-0.4-1.4,0-1.4,0.9c0,0.9,0.9,1.3,1.4,0.9
						C206.2,126,206.6,125.7,206.6,125.5z"/>
					<path class="st0" d="M207.3,124.8L207.3,124.8L207.3,124.8L207.3,124.8L207.3,124.8c0.1,0,0.5-0.4,0.9-0.9
						c0.4-0.5,0-1.4-0.9-1.4l0,0l0,0c-0.9,0-1.3,0.9-0.9,1.4C206.8,124.4,207.2,124.8,207.3,124.8z"/>
					<path class="st0" d="M208.9,124.6c-0.5,0.4-0.9,0.8-0.9,0.9c0,0.1,0.4,0.5,0.9,0.9c0.5,0.4,1.4,0,1.4-0.9
						C210.3,124.6,209.5,124.2,208.9,124.6z"/>
				</g>
				<g>
					<path class="st0" d="M214.3,126.2L214.3,126.2L214.3,126.2L214.3,126.2L214.3,126.2c-0.1,0-0.5,0.4-0.9,0.9
						c-0.4,0.5,0,1.4,0.9,1.4l0,0h0c0.9,0,1.3-0.9,0.9-1.4C214.9,126.6,214.5,126.2,214.3,126.2z"/>
					<path class="st0" d="M213.6,125.5c0-0.1-0.4-0.5-0.9-0.9c-0.5-0.4-1.4,0-1.4,0.9c0,0.9,0.9,1.3,1.4,0.9
						C213.2,126,213.6,125.7,213.6,125.5z"/>
					<path class="st0" d="M214.3,124.8L214.3,124.8L214.3,124.8L214.3,124.8L214.3,124.8c0.1,0,0.5-0.4,0.9-0.9
						c0.4-0.5,0-1.4-0.9-1.4h0l0,0c-0.9,0-1.3,0.9-0.9,1.4C213.8,124.4,214.2,124.8,214.3,124.8z"/>
					<path class="st0" d="M216,124.6c-0.5,0.4-0.9,0.8-0.9,0.9c0,0.1,0.4,0.5,0.9,0.9c0.5,0.4,1.4,0,1.4-0.9
						C217.4,124.6,216.5,124.2,216,124.6z"/>
				</g>
				<g>
					<path class="st0" d="M221.4,126.2L221.4,126.2L221.4,126.2L221.4,126.2L221.4,126.2c-0.1,0-0.5,0.4-0.9,0.9
						c-0.4,0.5,0,1.4,0.9,1.4l0,0l0,0c0.9,0,1.3-0.9,0.9-1.4C221.9,126.6,221.5,126.2,221.4,126.2z"/>
					<path class="st0" d="M220.7,125.5c0-0.1-0.4-0.5-0.9-0.9c-0.5-0.4-1.4,0-1.4,0.9c0,0.9,0.9,1.3,1.4,0.9
						C220.3,126,220.6,125.7,220.7,125.5z"/>
					<path class="st0" d="M221.4,124.8L221.4,124.8L221.4,124.8L221.4,124.8L221.4,124.8c0.1,0,0.5-0.4,0.9-0.9
						c0.4-0.5,0-1.4-0.9-1.4l0,0l0,0c-0.9,0-1.3,0.9-0.9,1.4C220.8,124.4,221.2,124.8,221.4,124.8z"/>
					<path class="st0" d="M223,124.6c-0.5,0.4-0.9,0.8-0.9,0.9c0,0.1,0.4,0.5,0.9,0.9c0.5,0.4,1.4,0,1.4-0.9
						C224.4,124.6,223.5,124.2,223,124.6z"/>
				</g>
				<g>
					<path class="st0" d="M228.4,126.2L228.4,126.2L228.4,126.2L228.4,126.2L228.4,126.2c-0.1,0-0.5,0.4-0.9,0.9
						c-0.4,0.5,0,1.4,0.9,1.4l0,0c0,0,0,0,0,0c0.9,0,1.3-0.9,0.9-1.4C228.9,126.6,228.5,126.2,228.4,126.2z"/>
					<path class="st0" d="M227.7,125.5c0-0.1-0.4-0.5-0.9-0.9c-0.5-0.4-1.4,0-1.4,0.9c0,0.9,0.9,1.3,1.4,0.9
						C227.3,126,227.7,125.7,227.7,125.5z"/>
					<path class="st0" d="M228.4,124.8L228.4,124.8L228.4,124.8L228.4,124.8L228.4,124.8c0.1,0,0.5-0.4,0.9-0.9
						c0.4-0.5,0-1.4-0.9-1.4c0,0,0,0,0,0l0,0c-0.9,0-1.3,0.9-0.9,1.4C227.9,124.4,228.3,124.8,228.4,124.8z"/>
					<path class="st0" d="M230,124.6c-0.5,0.4-0.9,0.8-0.9,0.9c0,0.1,0.4,0.5,0.9,0.9c0.5,0.4,1.4,0,1.4-0.9
						C231.4,124.6,230.6,124.2,230,124.6z"/>
				</g>
				<g>
					<path class="st0" d="M235.4,126.2L235.4,126.2L235.4,126.2L235.4,126.2L235.4,126.2c-0.1,0-0.5,0.4-0.9,0.9
						c-0.4,0.5,0,1.4,0.9,1.4h0l0,0c0.9,0,1.3-0.9,0.9-1.4C236,126.6,235.6,126.2,235.4,126.2z"/>
					<path class="st0" d="M234.7,125.5c0-0.1-0.4-0.5-0.9-0.9c-0.5-0.4-1.4,0-1.4,0.9c0,0.9,0.9,1.3,1.4,0.9
						C234.3,126,234.7,125.7,234.7,125.5z"/>
					<path class="st0" d="M235.4,124.8L235.4,124.8L235.4,124.8L235.4,124.8L235.4,124.8c0.1,0,0.5-0.4,0.9-0.9
						c0.4-0.5,0-1.4-0.9-1.4l0,0h0c-0.9,0-1.3,0.9-0.9,1.4C234.9,124.4,235.3,124.8,235.4,124.8z"/>
					<path class="st0" d="M237.1,124.6c-0.5,0.4-0.9,0.8-0.9,0.9c0,0.1,0.4,0.5,0.9,0.9c0.5,0.4,1.4,0,1.4-0.9
						C238.5,124.6,237.6,124.2,237.1,124.6z"/>
				</g>
				<g>
					<path class="st0" d="M242.5,126.2L242.5,126.2L242.5,126.2L242.5,126.2L242.5,126.2c-0.1,0-0.5,0.4-0.9,0.9
						c-0.4,0.5,0,1.4,0.9,1.4h0l0,0c0.9,0,1.3-0.9,0.9-1.4C243,126.6,242.6,126.2,242.5,126.2z"/>
					<path class="st0" d="M241.8,125.5c0-0.1-0.4-0.5-0.9-0.9c-0.5-0.4-1.4,0-1.4,0.9c0,0.9,0.9,1.3,1.4,0.9
						C241.4,126,241.7,125.7,241.8,125.5z"/>
					<path class="st0" d="M242.5,124.8L242.5,124.8L242.5,124.8L242.5,124.8L242.5,124.8c0.1,0,0.5-0.4,0.9-0.9
						c0.4-0.5,0-1.4-0.9-1.4l0,0h0c-0.9,0-1.3,0.9-0.9,1.4C241.9,124.4,242.3,124.8,242.5,124.8z"/>
					<path class="st0" d="M244.1,124.6c-0.5,0.4-0.9,0.8-0.9,0.9c0,0.1,0.4,0.5,0.9,0.9c0.5,0.4,1.4,0,1.4-0.9
						C245.5,124.6,244.6,124.2,244.1,124.6z"/>
				</g>
				<g>
					<path class="st0" d="M249.5,126.2L249.5,126.2L249.5,126.2L249.5,126.2L249.5,126.2c-0.1,0-0.5,0.4-0.9,0.9
						c-0.4,0.5,0,1.4,0.9,1.4l0,0l0,0c0.9,0,1.3-0.9,0.9-1.4C250,126.6,249.6,126.2,249.5,126.2z"/>
					<path class="st0" d="M248.8,125.5c0-0.1-0.4-0.5-0.9-0.9c-0.5-0.4-1.4,0-1.4,0.9c0,0.9,0.9,1.3,1.4,0.9
						C248.4,126,248.8,125.7,248.8,125.5z"/>
					<path class="st0" d="M249.5,124.8L249.5,124.8L249.5,124.8L249.5,124.8L249.5,124.8c0.1,0,0.5-0.4,0.9-0.9
						c0.4-0.5,0-1.4-0.9-1.4l0,0l0,0c-0.9,0-1.3,0.9-0.9,1.4C249,124.4,249.4,124.8,249.5,124.8z"/>
					<path class="st0" d="M251.1,124.6c-0.5,0.4-0.9,0.8-0.9,0.9c0,0.1,0.4,0.5,0.9,0.9c0.5,0.4,1.4,0,1.4-0.9
						C252.5,124.6,251.7,124.2,251.1,124.6z"/>
				</g>
			</g>
		</g>
		<path class="st0" d="M35,141.8c1.3,3.4,4.5,6,8.1,4.2c1.4-0.7,2.3-1.6,2.6-3.2c0.3-1.6-0.6-3.1-2.1-3.5c-0.1,0-0.1,0-0.2,0
			c-0.2-0.1-0.3-0.1-0.5-0.1c-0.9,0-1.7,0.7-1.7,1.7c0,0.9,0.7,1.7,1.7,1.7c0.3,0,0.6-0.1,0.9-0.3c0.2,0.6,0.2,1.2,0,1.8
			c-0.6,2.1-3,1.7-4.4,0.5c-2.3-1.8-3.1-4.9-3.4-7.7c-0.8-6.7-1.6-15.7,3.7-20.9c0.1-0.1,0.3-0.3,0.4-0.4c0.3,0.1,0.5,0.1,0.4,0
			c-0.1-0.1-0.1-0.1-0.2-0.2c0.1-0.1,0.1-0.1,0.2-0.2c0.1-0.1-0.1-0.1-0.4,0c-0.1-0.1-0.3-0.3-0.4-0.4c-5.3-5.2-4.5-14.2-3.7-20.9
			c0.3-2.8,1.1-5.9,3.4-7.7c1.4-1.2,3.8-1.6,4.4,0.5c0.2,0.6,0.1,1.2,0,1.8c-0.3-0.2-0.6-0.3-0.9-0.3c-0.9,0-1.7,0.7-1.7,1.7
			c0,0.9,0.7,1.7,1.7,1.7c0.2,0,0.4,0,0.5-0.1c0.1,0,0.1,0,0.2,0c1.5-0.5,2.4-2,2.1-3.5c-0.3-1.6-1.2-2.5-2.6-3.2
			c-3.6-1.9-6.8,0.8-8.1,4.2c-1.5,4-1.6,9-1.4,13.2c0.1,3.1,0.7,6.2,2.1,8.9c-1.6-1.6-3.1-3.3-4.5-5.1c0.7-2.6,0.8-5.4,0.8-7.9
			c-0.1-3.3-0.6-7.2-2.9-9.7c-2.4-2.6-4.7-0.8-5.3,2.2c-1,4.8,1.6,9.1,4.2,12.8c0.4,0.6,0.8,1.2,1.3,1.7c-0.4,1.2-0.9,2.3-1.4,3.3
			c-1.5,2.5-4.1,4-7,3.6c-2.5-0.3-2.5-3.1-1.8-4.9c0.4-1.1,1.6-1.8,2.2-1c-0.7,0.2-1.3,0.8-1.3,1.6c0,0.9,0.7,1.7,1.7,1.7
			c0.9,0,1.7-0.7,1.7-1.7c0,0,0,0,0,0c0.1,0,0.1,0,0.1,0c-0.3-2.3-3.4-3.7-5.3-2.5c-1.6,1-1.5,3.5-0.7,5c0.6,1.1,2,1.8,3.1,2.3
			c3.2,1.5,6.5,0.4,8.7-2.3c0.8-0.9,1.3-2,1.8-3.2c2.3,2.6,4.8,5,7.4,7.3c0,0,0,0,0,0c0.2,0.2,0.3,0.3,0.5,0.5c0,0,0,0,0,0
			c0,0,0.1,0.1,0.1,0.1c0.1,0.1,0.4,0.2,0.7,0.3c-0.3,0.1-0.6,0.3-0.7,0.3c0,0-0.1,0.1-0.1,0.1c0,0,0,0,0,0
			c-0.2,0.2-0.3,0.3-0.5,0.5c0,0,0,0,0,0c-2.6,2.3-5.1,4.7-7.4,7.3c-0.4-1.2-1-2.2-1.8-3.2c-2.2-2.7-5.5-3.7-8.7-2.3
			c-1.1,0.5-2.5,1.2-3.1,2.3c-0.8,1.4-0.9,4,0.7,5c2,1.2,5-0.2,5.3-2.5c0,0,0,0-0.1,0c0,0,0,0,0,0c0-0.9-0.7-1.7-1.7-1.7
			c-0.9,0-1.7,0.7-1.7,1.7c0,0.8,0.6,1.5,1.3,1.6c-0.6,0.8-1.8,0-2.2-1c-0.7-1.7-0.7-4.5,1.8-4.9c2.9-0.4,5.5,1.1,7,3.6
			c0.6,1,1.1,2.1,1.4,3.3c-0.4,0.6-0.9,1.1-1.3,1.7c-2.6,3.7-5.1,8-4.2,12.8c0.6,3,2.8,4.9,5.3,2.2c2.3-2.5,2.9-6.4,2.9-9.7
			c0.1-2.5,0-5.3-0.8-7.9c1.4-1.8,2.9-3.5,4.5-5.1c-1.4,2.7-2,5.8-2.1,8.9C33.4,132.7,33.5,137.8,35,141.8z M26.5,98.7
			c-1.3-2.5-1.4-6-0.5-8.7c0.2-0.6,0.6-1.1,1.1-1.6c0.7-0.7,0.7-0.1,1.1,0.6c0.7,1.1,1,2.5,1.4,3.7c0.9,3.3,0.9,7.4,0,11.1
			C28.4,102.2,27.4,100.5,26.5,98.7z M29.6,138c-0.3,1.3-0.7,2.6-1.4,3.7c-0.4,0.7-0.4,1.3-1.1,0.6c-0.5-0.5-0.8-1-1.1-1.6
			c-0.9-2.6-0.8-6.1,0.5-8.7c0.9-1.8,2-3.5,3.1-5.1C30.5,130.6,30.4,134.6,29.6,138z"/>
		<g>
			<path class="st0" d="M162.4,66L162.4,66L162.4,66L162.4,66L162.4,66c-0.3,0-1.3,1-2.1,2.3c-0.9,1.3,0,3.4,2.1,3.4l0,0h0
				c2.2,0,3-2.1,2.1-3.4C163.6,67,162.7,66.1,162.4,66z"/>
			<path class="st0" d="M160.7,64.3c0-0.3-1-1.3-2.3-2.2c-1.3-0.9-3.3,0-3.4,2.2c0,2.2,2.1,3,3.4,2.2
				C159.7,65.6,160.6,64.7,160.7,64.3z"/>
			<path class="st0" d="M162.4,62.6L162.4,62.6L162.4,62.6L162.4,62.6L162.4,62.6c0.3,0,1.3-1,2.1-2.3c0.9-1.3,0-3.4-2.1-3.4h0l0,0
				c-2.2,0-3,2.1-2.1,3.4C161.1,61.7,162,62.6,162.4,62.6z"/>
			<path class="st0" d="M166.3,62.2c-1.3,0.9-2.2,1.8-2.3,2.2c0,0.3,1,1.3,2.3,2.2c1.3,0.9,3.3,0,3.4-2.2
				C169.6,62.2,167.6,61.3,166.3,62.2z"/>
		</g>
	</g>
</g>
<text transform="matrix(1 0 0 1 60.8219 114.9099)" class="st0 st1 st2">Питомник растений</text>
<text transform="matrix(1 0 0 1 104.7517 151.3648)" class="st0 st3 st4">Посульська флора</text>
</svg>
