<?xml version="1.0" encoding="utf-8"?>
<!-- Generator: Adobe Illustrator 19.0.1, SVG Export Plug-In . SVG Version: 6.00 Build 0)  -->
<svg version="1.1" id="Слой_1" xmlns="http://www.w3.org/2000/svg" xmlns:xlink="http://www.w3.org/1999/xlink" x="0px" y="0px"
	 viewBox="-145 282 320 230" style="enable-background:new -145 282 320 230;" xml:space="preserve">
<style type="text/css">
	.st0{fill:#725438;}
	.st1{fill:#CCBAAC;}
	.st2{font-family:'ComicSansMS';}
	.st3{font-size:21px;}
	.st4{font-family:'SegoePrint';}
	.st5{font-size:14px;}
</style>
<g id="Слой_2">
</g>
<g id="Слой_1_1_">
	<g>
		<g>
			<g>
				<g>
					<path class="st0" d="M175.3,397c0-27.4-9.7-50.3-22.5-55.6c0.4-10.9-2.1-35.2-32.4-35.9H119c-28.7,0-59.3,16.9-80.9,16.9
						c-7.6,0-14-2.1-18.9-7.6c-0.2-0.4-0.6-0.7-1-0.7c-0.5,0-0.8,0.3-1,0.7h-0.1c-4.9,5.6-11.4,7.6-18.9,7.6
						c-21.6,0-52.3-16.9-80.9-16.9h-0.1v4.6c14.7,0,29.9,4.6,44.6,9.1c13.1,4,25.5,7.8,36.2,7.8c8.3,0,14.8-2.2,20-6.8
						c5.1,4.6,11.7,6.8,20,6.8c10.7,0,23.1-3.8,36.2-7.8c14.8-4.5,30.1-9.1,44.7-9.1h1.4c9.2,0.2,16.3,2.8,20.9,7.8
						c6.6,7.1,7.3,17.7,7,23.3l-0.1,3.2l2.9,1.2c9.6,4,19.7,23.3,19.7,51.4c0,28-10.2,47.4-19.7,51.4l-2.9,1.2l0.1,3.2
						c0.2,5.7-0.4,16.3-7,23.3c-4.6,5-11.7,7.6-20.9,7.8H119c-14.7,0-30-4.6-44.7-9.1c-13.1-4-25.5-7.8-36.2-7.8
						c-8.3,0-14.8,2.2-20,6.8C13,469.2,6.3,467-2,467c-10.7,0-23.1,3.8-36.2,7.8c-14.8,4.5-30.1,9.1-44.7,9.1h-1.4
						c-11.1-0.2-19-4-23.5-11.2c-3.8-6.2-4.6-13.7-4.5-18.9l0.1-4.7h-4.9c-5.6-0.1-11.4-5.2-15.9-14.1c-5-10.1-7.8-23.6-7.8-38.1
						s2.8-28,7.8-38.1c4.4-8.9,10.2-14,15.9-14.1h0.3l4.7,0.1l-0.1-4.7c-0.1-5.2,0.6-12.7,4.5-18.8c4.5-7.2,12.4-10.9,23.5-11.1h1.4
						v-0.1h-0.1v-4.6h-1.3c-29.4,0.6-32.7,23.3-32.6,34.7c-0.1,0-0.2,0-0.2,0c-15.6,0-28.3,25.4-28.3,56.8s12.7,56.8,28.3,56.8
						c0.1,0,0.2,0,0.2,0c-0.2,11.4,3.2,34.1,32.4,34.7h1.5c28.7,0,59.3-16.9,80.9-16.9c7.6,0,14,2.1,18.9,7.6H17
						c0.2,0.4,0.6,0.7,1,0.7c0.5,0,0.8-0.3,1-0.7c2.5-2.8,5.3-4.7,8.5-5.9c3.2-1.2,6.7-1.7,10.4-1.7c21.6,0,52.3,16.9,80.9,16.9h1.5
						c30.3-0.6,32.8-24.9,32.4-35.9C165.7,447.3,175.3,424.4,175.3,397z"/>
				</g>
				<g>
					<g>
						<path class="st0" d="M148.7,349.9l-0.3-0.1l-7.4-0.1l1.9-8.5v-1.9c0-5.5-1-13.2-5.8-18.3c-3.7-4-9.7-6.1-17.6-6.3h-1.3
							c-12.8,0-26.5,3.9-40.5,8.1l-2.9,0.9c-13.4,4-26.1,7.9-37.5,7.9c-6,0-11.4-1.1-16-3.3v-0.1c0-2.1-1.6-3.8-3.7-3.8
							c-2,0-3.6,1.6-3.7,3.6c-4.7,2.4-10.3,3.6-16.5,3.6c-11.4,0-24.1-3.8-37.5-7.9l-2.9-0.9c-14-4.3-27.7-8.1-40.5-8.1h-1.3
							c-9.6,0.2-16.1,3.2-19.7,9c-3.1,5-3.8,11.3-3.8,15.7v0.7l2.9,10.6l-12.2-1.2h-0.3c-3.8,0.2-8,4.4-11.6,11.5
							c-4.6,9.3-7.3,22.5-7.3,36c0,13.6,2.7,26.7,7.3,36c3.6,7,7.8,11.2,11.7,11.5h0.5l12-0.7l-2.8,9.7v1c0,4.4,0.7,10.7,3.8,15.7
							c3.7,5.9,10.1,8.8,19.7,9h1.3c12.8,0,26.5-3.9,40.5-8.1l2.9-0.9c13.4-4,26.1-7.9,37.5-7.9c6.2,0,11.8,1.2,16.5,3.6v0.5
							c0,2.1,1.6,3.8,3.7,3.8c2,0,3.7-1.7,3.7-3.8c0-0.2-0.1-0.5-0.1-0.7c4.6-2.3,10.1-3.4,16.1-3.4c11.4,0,24.1,3.8,37.5,7.9
							l3.8,1.2c13.3,4,26.1,7.5,38.3,7.8h1.8c0.3,0,0.6,0,0.7-0.2c7.9-0.2,13.8-2.3,17.6-6.3c4.8-5.1,5.8-12.8,5.8-18.3v-1.9
							l-3.8-8.6l9.2,0.1l0.3-0.1c7-2.9,16.9-19.5,16.9-47C165.5,369.5,155.7,352.9,148.7,349.9z M148.2,442.4l-11.7-0.2l4.9,10.9
							v1.5c0,5.2-0.9,12.4-5.3,17.1c-3.4,3.6-8.9,5.5-16.3,5.7h-1.4l-0.4,0.1c-12.4-0.1-25.8-3.8-39.5-8l-2.9-0.9
							c-13.6-4.1-26.4-8-38.1-8c-6.6,0-12.5,1.3-17.6,3.9l-0.8,0.4l0.4,0.8c0.1,0.3,0.2,0.5,0.2,0.8c0,1-0.9,1.9-1.9,1.9
							c-1.1,0-1.9-0.8-1.9-1.9c0-0.2,0-0.5,0.1-0.7l0.3-0.8l-0.7-0.4c-5.1-2.7-11.2-4.1-18-4.1c-11.6,0-24.4,3.9-38,8l-2.9,0.9
							c-13.9,4.2-27.4,8-40,8h-1.2c-9-0.2-14.9-2.8-18.2-8.1c-2.9-4.6-3.5-10.5-3.5-14.7V454l3.5-12.1l-14.5,0.8h-0.4
							c-3.1-0.2-6.9-4.1-10.1-10.5c-4.5-9.1-7.1-21.9-7.1-35.2s2.6-26.1,7.1-35.2c3.2-6.4,7-10.3,10.1-10.5l14.8,1.5l-3.5-12.8v-0.5
							c0-4.1,0.6-10.1,3.5-14.7c3.3-5.3,9.3-8,18.1-7.9h1.3c12.5,0,26,3.8,39.9,8l2.9,0.9c13.6,4.1,26.4,8,38.1,8
							c6.8,0,12.8-1.3,17.9-4l0.6-0.3l-0.1-0.7v-0.3c0-1,0.9-1.9,1.9-1.9c1.1,0,1.9,0.8,1.9,1.9c0,0.1-0.1,0.2-0.1,0.4l-0.2,0.7
							l0.6,0.3c5,2.5,10.9,3.8,17.4,3.8c11.7,0,24.5-3.9,38.1-8l2.9-0.9c13.9-4.2,27.4-8,40-8h1.3c7.4,0.1,12.9,2.1,16.3,5.7
							c4.4,4.7,5.3,11.9,5.3,17.1v1.5l-2.4,10.6l9.3,0.1c6.5,2.9,15.7,18.8,15.7,45.3C163.8,423.6,154.7,439.5,148.2,442.4z"/>
						<path class="st1" fill-opacity="0.9" d="M163.8,397.1c-0.1,26.5-9.2,42.4-15.7,45.3l-11.7-0.2l4.9,10.9v1.5c0,5.2-0.9,12.4-5.3,17.1
							c-3.4,3.6-8.9,5.5-16.3,5.7h-1.4l-0.4,0.1c-12.4-0.1-25.8-3.8-39.5-8l-2.9-0.9c-13.6-4.1-26.4-8-38.1-8
							c-6.6,0-12.5,1.3-17.6,3.9l-0.8,0.4l0.4,0.8c0.1,0.3,0.2,0.5,0.2,0.8c0,1-0.9,1.9-1.9,1.9c-1.1,0-1.9-0.8-1.9-1.9
							c0-0.2,0-0.5,0.1-0.7l0.3-0.8l-0.7-0.4c-5.1-2.7-11.2-4.1-18-4.1c-11.6,0-24.4,3.9-38,8l-2.9,0.9c-13.9,4.2-27.4,8-40,8h-1.2
							c-9-0.2-14.9-2.8-18.2-8.1c-2.9-4.6-3.5-10.5-3.5-14.7V454l3.5-12.1l-14.5,0.8h-0.4c-3.1-0.2-6.9-4.1-10.1-10.5
							c-4.5-9.1-7.1-21.9-7.1-35.2s2.6-26.1,7.1-35.2c3.2-6.4,7-10.3,10.1-10.5l14.8,1.5l-3.5-12.8v-0.5c0-4.1,0.6-10.1,3.5-14.7
							c3.3-5.3,9.3-8,18.1-7.9h1.3c12.5,0,26,3.8,39.9,8l2.9,0.9c13.6,4.1,26.4,8,38.1,8c6.8,0,12.8-1.3,17.9-4l0.6-0.3l-0.1-0.7
							v-0.3c0-1,0.9-1.9,1.9-1.9c1.1,0,1.9,0.8,1.9,1.9c0,0.1-0.1,0.2-0.1,0.4l-0.2,0.7l0.6,0.3c5,2.5,10.9,3.8,17.4,3.8
							c11.7,0,24.5-3.9,38.1-8l2.9-0.9c13.9-4.2,27.4-8,40-8h1.3c7.4,0.1,12.9,2.1,16.3,5.7c4.4,4.7,5.3,11.9,5.3,17.1v1.5
							l-2.4,10.6l9.3,0.1C154.7,354.7,163.8,370.6,163.8,397.1z"/>
					</g>
				</g>
			</g>
			<g>
				<g>
					<g>
						<path class="st0" d="M-70.9,407.5L-70.9,407.5L-70.9,407.5L-70.9,407.5L-70.9,407.5c-0.1,0-0.5,0.4-0.9,0.9s0,1.4,0.9,1.4l0,0
							l0,0c0.9,0,1.3-0.9,0.9-1.4S-70.7,407.5-70.9,407.5z"/>
						<path class="st0" d="M-71.6,406.8c0-0.1-0.4-0.5-0.9-0.9s-1.4,0-1.4,0.9s0.9,1.3,1.4,0.9S-71.6,407-71.6,406.8z"/>
						<path class="st0" d="M-70.9,406.1L-70.9,406.1L-70.9,406.1L-70.9,406.1L-70.9,406.1c0.1,0,0.5-0.4,0.9-0.9s0-1.4-0.9-1.4l0,0
							l0,0c-0.9,0-1.3,0.9-0.9,1.4S-71,406.1-70.9,406.1z"/>
						<path class="st0" d="M-69.2,405.9c-0.5,0.4-0.9,0.8-0.9,0.9s0.4,0.5,0.9,0.9s1.4,0,1.4-0.9S-68.7,405.5-69.2,405.9z"/>
					</g>
					<g>
						<path class="st0" d="M-63.8,407.5L-63.8,407.5L-63.8,407.5L-63.8,407.5L-63.8,407.5c-0.1,0-0.5,0.4-0.9,0.9s0,1.4,0.9,1.4l0,0
							l0,0c0.9,0,1.3-0.9,0.9-1.4S-63.7,407.5-63.8,407.5z"/>
						<path class="st0" d="M-64.6,406.8c0-0.1-0.4-0.5-0.9-0.9s-1.4,0-1.4,0.9s0.9,1.3,1.4,0.9S-64.6,407-64.6,406.8z"/>
						<path class="st0" d="M-63.8,406.1L-63.8,406.1L-63.8,406.1L-63.8,406.1L-63.8,406.1c0.1,0,0.5-0.4,0.9-0.9s0-1.4-0.9-1.4l0,0
							l0,0c-0.9,0-1.3,0.9-0.9,1.4C-64.4,405.7-64,406.1-63.8,406.1z"/>
						<path class="st0" d="M-62.2,405.9c-0.5,0.4-0.9,0.8-0.9,0.9s0.4,0.5,0.9,0.9s1.4,0,1.4-0.9S-61.7,405.5-62.2,405.9z"/>
					</g>
					<g>
						<path class="st0" d="M-56.8,407.5L-56.8,407.5L-56.8,407.5L-56.8,407.5L-56.8,407.5c-0.1,0-0.5,0.4-0.9,0.9s0,1.4,0.9,1.4l0,0
							l0,0c0.9,0,1.3-0.9,0.9-1.4S-56.7,407.5-56.8,407.5z"/>
						<path class="st0" d="M-57.5,406.8c0-0.1-0.4-0.5-0.9-0.9s-1.4,0-1.4,0.9s0.9,1.3,1.4,0.9S-57.5,407-57.5,406.8z"/>
						<path class="st0" d="M-56.8,406.1L-56.8,406.1L-56.8,406.1L-56.8,406.1L-56.8,406.1c0.1,0,0.5-0.4,0.9-0.9s0-1.4-0.9-1.4l0,0
							l0,0c-0.9,0-1.3,0.9-0.9,1.4S-57,406.1-56.8,406.1z"/>
						<path class="st0" d="M-55.2,405.9c-0.5,0.4-0.9,0.8-0.9,0.9s0.4,0.5,0.9,0.9s1.4,0,1.4-0.9S-54.6,405.5-55.2,405.9z"/>
					</g>
					<g>
						<path class="st0" d="M-49.8,407.5L-49.8,407.5L-49.8,407.5L-49.8,407.5L-49.8,407.5c-0.1,0-0.5,0.4-0.9,0.9s0,1.4,0.9,1.4l0,0
							l0,0c0.9,0,1.3-0.9,0.9-1.4S-49.6,407.5-49.8,407.5z"/>
						<path class="st0" d="M-50.5,406.8c0-0.1-0.4-0.5-0.9-0.9s-1.4,0-1.4,0.9s0.9,1.3,1.4,0.9S-50.5,407-50.5,406.8z"/>
						<path class="st0" d="M-49.8,406.1L-49.8,406.1L-49.8,406.1L-49.8,406.1L-49.8,406.1c0.1,0,0.5-0.4,0.9-0.9s0-1.4-0.9-1.4l0,0
							l0,0c-0.9,0-1.3,0.9-0.9,1.4S-49.9,406.1-49.8,406.1z"/>
						<path class="st0" d="M-48.1,405.9c-0.5,0.4-0.9,0.8-0.9,0.9s0.4,0.5,0.9,0.9s1.4,0,1.4-0.9S-47.6,405.5-48.1,405.9z"/>
					</g>
					<g>
						<path class="st0" d="M-42.8,407.5L-42.8,407.5L-42.8,407.5L-42.8,407.5L-42.8,407.5c-0.1,0-0.5,0.4-0.9,0.9s0,1.4,0.9,1.4l0,0
							l0,0c0.9,0,1.3-0.9,0.9-1.4C-42.2,407.9-42.6,407.5-42.8,407.5z"/>
						<path class="st0" d="M-43.5,406.8c0-0.1-0.4-0.5-0.9-0.9s-1.4,0-1.4,0.9s0.9,1.3,1.4,0.9S-43.5,407-43.5,406.8z"/>
						<path class="st0" d="M-42.8,406.1L-42.8,406.1L-42.8,406.1L-42.8,406.1L-42.8,406.1c0.1,0,0.5-0.4,0.9-0.9s0-1.4-0.9-1.4l0,0
							l0,0c-0.9,0-1.3,0.9-0.9,1.4S-42.9,406.1-42.8,406.1z"/>
						<path class="st0" d="M-41.1,405.9c-0.5,0.4-0.9,0.8-0.9,0.9s0.4,0.5,0.9,0.9s1.4,0,1.4-0.9S-40.6,405.5-41.1,405.9z"/>
					</g>
					<g>
						<path class="st0" d="M-35.7,407.5L-35.7,407.5L-35.7,407.5L-35.7,407.5L-35.7,407.5c-0.1,0-0.5,0.4-0.9,0.9s0,1.4,0.9,1.4l0,0
							l0,0c0.9,0,1.3-0.9,0.9-1.4S-35.6,407.5-35.7,407.5z"/>
						<path class="st0" d="M-36.4,406.8c0-0.1-0.4-0.5-0.9-0.9s-1.4,0-1.4,0.9s0.9,1.3,1.4,0.9S-36.4,407-36.4,406.8z"/>
						<path class="st0" d="M-35.7,406.1L-35.7,406.1L-35.7,406.1L-35.7,406.1L-35.7,406.1c0.1,0,0.5-0.4,0.9-0.9s0-1.4-0.9-1.4l0,0
							l0,0c-0.9,0-1.3,0.9-0.9,1.4S-35.9,406.1-35.7,406.1z"/>
						<path class="st0" d="M-34.1,405.9c-0.5,0.4-0.9,0.8-0.9,0.9s0.4,0.5,0.9,0.9s1.4,0,1.4-0.9S-33.5,405.5-34.1,405.9z"/>
					</g>
					<g>
						<path class="st0" d="M-28.7,407.5L-28.7,407.5L-28.7,407.5L-28.7,407.5L-28.7,407.5c-0.1,0-0.5,0.4-0.9,0.9s0,1.4,0.9,1.4l0,0
							l0,0c0.9,0,1.3-0.9,0.9-1.4S-28.5,407.5-28.7,407.5z"/>
						<path class="st0" d="M-29.4,406.8c0-0.1-0.4-0.5-0.9-0.9s-1.4,0-1.4,0.9s0.9,1.3,1.4,0.9C-29.8,407.3-29.4,407-29.4,406.8z"/>
						<path class="st0" d="M-28.7,406.1L-28.7,406.1L-28.7,406.1L-28.7,406.1L-28.7,406.1c0.1,0,0.5-0.4,0.9-0.9s0-1.4-0.9-1.4l0,0
							l0,0c-0.9,0-1.3,0.9-0.9,1.4S-28.8,406.1-28.7,406.1z"/>
						<path class="st0" d="M-27,405.9c-0.5,0.4-0.9,0.8-0.9,0.9s0.4,0.5,0.9,0.9s1.4,0,1.4-0.9S-26.5,405.5-27,405.9z"/>
					</g>
					<g>
						<path class="st0" d="M-21.7,407.5L-21.7,407.5L-21.7,407.5L-21.7,407.5L-21.7,407.5c-0.1,0-0.5,0.4-0.9,0.9s0,1.4,0.9,1.4l0,0
							l0,0c0.9,0,1.3-0.9,0.9-1.4C-21.1,407.9-21.5,407.5-21.7,407.5z"/>
						<path class="st0" d="M-22.4,406.8c0-0.1-0.4-0.5-0.9-0.9s-1.4,0-1.4,0.9s0.9,1.3,1.4,0.9C-22.8,407.3-22.4,407-22.4,406.8z"/>
						<path class="st0" d="M-21.7,406.1L-21.7,406.1L-21.7,406.1L-21.7,406.1L-21.7,406.1c0.1,0,0.5-0.4,0.9-0.9s0-1.4-0.9-1.4l0,0
							l0,0c-0.9,0-1.3,0.9-0.9,1.4S-21.8,406.1-21.7,406.1z"/>
						<path class="st0" d="M-20,405.9c-0.5,0.4-0.9,0.8-0.9,0.9s0.4,0.5,0.9,0.9s1.4,0,1.4-0.9S-19.5,405.5-20,405.9z"/>
					</g>
					<g>
						<path class="st0" d="M-14.6,407.5L-14.6,407.5L-14.6,407.5L-14.6,407.5L-14.6,407.5c-0.1,0-0.5,0.4-0.9,0.9s0,1.4,0.9,1.4l0,0
							l0,0c0.9,0,1.3-0.9,0.9-1.4C-14.1,407.9-14.5,407.5-14.6,407.5z"/>
						<path class="st0" d="M-15.3,406.8c0-0.1-0.4-0.5-0.9-0.9s-1.4,0-1.4,0.9s0.9,1.3,1.4,0.9S-15.3,407-15.3,406.8z"/>
						<path class="st0" d="M-14.6,406.1L-14.6,406.1L-14.6,406.1L-14.6,406.1L-14.6,406.1c0.1,0,0.5-0.4,0.9-0.9s0-1.4-0.9-1.4l0,0
							l0,0c-0.9,0-1.3,0.9-0.9,1.4C-15.2,405.7-14.8,406.1-14.6,406.1z"/>
						<path class="st0" d="M-13,405.9c-0.5,0.4-0.9,0.8-0.9,0.9s0.4,0.5,0.9,0.9s1.4,0,1.4-0.9S-12.4,405.5-13,405.9z"/>
					</g>
					<g>
						<path class="st0" d="M-7.6,407.5L-7.6,407.5L-7.6,407.5L-7.6,407.5L-7.6,407.5c-0.1,0-0.5,0.4-0.9,0.9s0,1.4,0.9,1.4l0,0l0,0
							c0.9,0,1.3-0.9,0.9-1.4C-7.1,407.9-7.4,407.5-7.6,407.5z"/>
						<path class="st0" d="M-8.3,406.8c0-0.1-0.4-0.5-0.9-0.9s-1.4,0-1.4,0.9s0.9,1.3,1.4,0.9C-8.7,407.3-8.3,407-8.3,406.8z"/>
						<path class="st0" d="M-7.6,406.1L-7.6,406.1L-7.6,406.1L-7.6,406.1L-7.6,406.1c0.1,0,0.5-0.4,0.9-0.9s0-1.4-0.9-1.4l0,0l0,0
							c-0.9,0-1.3,0.9-0.9,1.4C-8.1,405.7-7.7,406.1-7.6,406.1z"/>
						<path class="st0" d="M-5.9,405.9c-0.5,0.4-0.9,0.8-0.9,0.9s0.4,0.5,0.9,0.9s1.4,0,1.4-0.9C-4.6,405.9-5.4,405.5-5.9,405.9z"/>
					</g>
					<g>
						<path class="st0" d="M-0.6,407.5L-0.6,407.5L-0.6,407.5L-0.6,407.5L-0.6,407.5c-0.1,0-0.5,0.4-0.9,0.9s0,1.4,0.9,1.4l0,0l0,0
							c0.9,0,1.3-0.9,0.9-1.4C0,407.9-0.4,407.5-0.6,407.5z"/>
						<path class="st0" d="M-1.3,406.8c0-0.1-0.4-0.5-0.9-0.9s-1.4,0-1.4,0.9s0.9,1.3,1.4,0.9S-1.3,407-1.3,406.8z"/>
						<path class="st0" d="M-0.6,406.1L-0.6,406.1L-0.6,406.1L-0.6,406.1L-0.6,406.1c0.1,0,0.5-0.4,0.9-0.9s0-1.4-0.9-1.4l0,0l0,0
							c-0.9,0-1.3,0.9-0.9,1.4S-0.7,406.1-0.6,406.1z"/>
						<path class="st0" d="M1.1,405.9c-0.5,0.4-0.9,0.8-0.9,0.9s0.4,0.5,0.9,0.9s1.4,0,1.4-0.9S1.6,405.5,1.1,405.9z"/>
					</g>
					<g>
						<path class="st0" d="M6.5,407.5L6.5,407.5L6.5,407.5L6.5,407.5L6.5,407.5c-0.1,0-0.5,0.4-0.9,0.9s0,1.4,0.9,1.4l0,0l0,0
							c0.9,0,1.3-0.9,0.9-1.4C7,407.9,6.6,407.5,6.5,407.5z"/>
						<path class="st0" d="M5.8,406.8c0-0.1-0.4-0.5-0.9-0.9s-1.4,0-1.4,0.9s0.9,1.3,1.4,0.9S5.8,407,5.8,406.8z"/>
						<path class="st0" d="M6.5,406.1L6.5,406.1L6.5,406.1L6.5,406.1L6.5,406.1c0.1,0,0.5-0.4,0.9-0.9s0-1.4-0.9-1.4l0,0l0,0
							c-0.9,0-1.3,0.9-0.9,1.4C5.9,405.7,6.3,406.1,6.5,406.1z"/>
						<path class="st0" d="M8.1,405.9c-0.5,0.4-0.9,0.8-0.9,0.9s0.4,0.5,0.9,0.9s1.4,0,1.4-0.9C9.5,405.9,8.7,405.5,8.1,405.9z"/>
					</g>
					<g>
						<path class="st0" d="M13.5,407.5L13.5,407.5L13.5,407.5L13.5,407.5L13.5,407.5c-0.1,0-0.5,0.4-0.9,0.9s0,1.4,0.9,1.4l0,0l0,0
							c0.9,0,1.3-0.9,0.9-1.4C14,407.9,13.7,407.5,13.5,407.5z"/>
						<path class="st0" d="M12.8,406.8c0-0.1-0.4-0.5-0.9-0.9s-1.4,0-1.4,0.9s0.9,1.3,1.4,0.9S12.8,407,12.8,406.8z"/>
						<path class="st0" d="M13.5,406.1L13.5,406.1L13.5,406.1L13.5,406.1L13.5,406.1c0.1,0,0.5-0.4,0.9-0.9s0-1.4-0.9-1.4l0,0l0,0
							c-0.9,0-1.3,0.9-0.9,1.4C13,405.7,13.4,406.1,13.5,406.1z"/>
						<path class="st0" d="M15.2,405.9c-0.5,0.4-0.9,0.8-0.9,0.9s0.4,0.5,0.9,0.9s1.4,0,1.4-0.9C16.5,405.9,15.7,405.5,15.2,405.9z"
							/>
					</g>
				</g>
				<g>
					<g>
						<path class="st0" d="M20.5,407.5L20.5,407.5L20.5,407.5L20.5,407.5L20.5,407.5c-0.1,0-0.5,0.4-0.9,0.9s0,1.4,0.9,1.4l0,0l0,0
							c0.9,0,1.3-0.9,0.9-1.4S20.6,407.5,20.5,407.5z"/>
						<path class="st0" d="M19.8,406.8c0-0.1-0.4-0.5-0.9-0.9s-1.4,0-1.4,0.9s0.9,1.3,1.4,0.9S19.8,407,19.8,406.8z"/>
						<path class="st0" d="M20.5,406.1L20.5,406.1L20.5,406.1L20.5,406.1L20.5,406.1c0.1,0,0.5-0.4,0.9-0.9s0-1.4-0.9-1.4l0,0l0,0
							c-0.9,0-1.3,0.9-0.9,1.4S20.4,406.1,20.5,406.1z"/>
						<path class="st0" d="M22.1,405.9c-0.5,0.4-0.9,0.8-0.9,0.9s0.4,0.5,0.9,0.9s1.4,0,1.4-0.9S22.7,405.5,22.1,405.9z"/>
					</g>
					<g>
						<path class="st0" d="M27.5,407.5L27.5,407.5L27.5,407.5L27.5,407.5L27.5,407.5c-0.1,0-0.5,0.4-0.9,0.9s0,1.4,0.9,1.4l0,0l0,0
							c0.9,0,1.3-0.9,0.9-1.4C28.1,407.9,27.7,407.5,27.5,407.5z"/>
						<path class="st0" d="M26.8,406.8c0-0.1-0.4-0.5-0.9-0.9s-1.4,0-1.4,0.9s0.9,1.3,1.4,0.9S26.8,407,26.8,406.8z"/>
						<path class="st0" d="M27.5,406.1L27.5,406.1L27.5,406.1L27.5,406.1L27.5,406.1c0.1,0,0.5-0.4,0.9-0.9s0-1.4-0.9-1.4l0,0l0,0
							c-0.9,0-1.3,0.9-0.9,1.4S27.4,406.1,27.5,406.1z"/>
						<path class="st0" d="M29.2,405.9c-0.5,0.4-0.9,0.8-0.9,0.9s0.4,0.5,0.9,0.9s1.4,0,1.4-0.9S29.7,405.5,29.2,405.9z"/>
					</g>
					<g>
						<path class="st0" d="M34.6,407.5L34.6,407.5L34.6,407.5L34.6,407.5L34.6,407.5c-0.1,0-0.5,0.4-0.9,0.9s0,1.4,0.9,1.4l0,0l0,0
							c0.9,0,1.3-0.9,0.9-1.4C35.1,407.9,34.7,407.5,34.6,407.5z"/>
						<path class="st0" d="M33.9,406.8c0-0.1-0.4-0.5-0.9-0.9s-1.4,0-1.4,0.9s0.9,1.3,1.4,0.9S33.8,407,33.9,406.8z"/>
						<path class="st0" d="M34.6,406.1L34.6,406.1L34.6,406.1L34.6,406.1L34.6,406.1c0.1,0,0.5-0.4,0.9-0.9s0-1.4-0.9-1.4l0,0l0,0
							c-0.9,0-1.3,0.9-0.9,1.4C34,405.7,34.4,406.1,34.6,406.1z"/>
						<path class="st0" d="M36.2,405.9c-0.5,0.4-0.9,0.8-0.9,0.9s0.4,0.5,0.9,0.9s1.4,0,1.4-0.9S36.7,405.5,36.2,405.9z"/>
					</g>
					<g>
						<path class="st0" d="M41.6,407.5L41.6,407.5L41.6,407.5L41.6,407.5L41.6,407.5c-0.1,0-0.5,0.4-0.9,0.9s0,1.4,0.9,1.4l0,0l0,0
							c0.9,0,1.3-0.9,0.9-1.4C42.1,407.9,41.7,407.5,41.6,407.5z"/>
						<path class="st0" d="M40.9,406.8c0-0.1-0.4-0.5-0.9-0.9s-1.4,0-1.4,0.9s0.9,1.3,1.4,0.9S40.9,407,40.9,406.8z"/>
						<path class="st0" d="M41.6,406.1L41.6,406.1L41.6,406.1L41.6,406.1L41.6,406.1c0.1,0,0.5-0.4,0.9-0.9s0-1.4-0.9-1.4l0,0l0,0
							c-0.9,0-1.3,0.9-0.9,1.4C41.1,405.7,41.5,406.1,41.6,406.1z"/>
						<path class="st0" d="M43.2,405.9c-0.5,0.4-0.9,0.8-0.9,0.9s0.4,0.5,0.9,0.9s1.4,0,1.4-0.9S43.8,405.5,43.2,405.9z"/>
					</g>
					<g>
						<path class="st0" d="M48.6,407.5L48.6,407.5L48.6,407.5L48.6,407.5L48.6,407.5c-0.1,0-0.5,0.4-0.9,0.9s0,1.4,0.9,1.4l0,0l0,0
							c0.9,0,1.3-0.9,0.9-1.4C49.2,407.9,48.8,407.5,48.6,407.5z"/>
						<path class="st0" d="M47.9,406.8c0-0.1-0.4-0.5-0.9-0.9s-1.4,0-1.4,0.9s0.9,1.3,1.4,0.9S47.9,407,47.9,406.8z"/>
						<path class="st0" d="M48.6,406.1L48.6,406.1L48.6,406.1L48.6,406.1L48.6,406.1c0.1,0,0.5-0.4,0.9-0.9s0-1.4-0.9-1.4l0,0l0,0
							c-0.9,0-1.3,0.9-0.9,1.4C48.1,405.7,48.5,406.1,48.6,406.1z"/>
						<path class="st0" d="M50.3,405.9c-0.5,0.4-0.9,0.8-0.9,0.9s0.4,0.5,0.9,0.9s1.4,0,1.4-0.9C51.7,405.9,50.8,405.5,50.3,405.9z"
							/>
					</g>
					<g>
						<path class="st0" d="M55.7,407.5L55.7,407.5L55.7,407.5L55.7,407.5L55.7,407.5c-0.1,0-0.5,0.4-0.9,0.9s0,1.4,0.9,1.4l0,0l0,0
							c0.9,0,1.3-0.9,0.9-1.4C56.2,407.9,55.8,407.5,55.7,407.5z"/>
						<path class="st0" d="M55,406.8c0-0.1-0.4-0.5-0.9-0.9s-1.4,0-1.4,0.9s0.9,1.3,1.4,0.9C54.6,407.3,54.9,407,55,406.8z"/>
						<path class="st0" d="M55.7,406.1L55.7,406.1L55.7,406.1L55.7,406.1L55.7,406.1c0.1,0,0.5-0.4,0.9-0.9s0-1.4-0.9-1.4l0,0l0,0
							c-0.9,0-1.3,0.9-0.9,1.4C55.1,405.7,55.5,406.1,55.7,406.1z"/>
						<path class="st0" d="M57.3,405.9c-0.5,0.4-0.9,0.8-0.9,0.9s0.4,0.5,0.9,0.9s1.4,0,1.4-0.9C58.7,405.9,57.8,405.5,57.3,405.9z"
							/>
					</g>
					<g>
						<path class="st0" d="M62.7,407.5L62.7,407.5L62.7,407.5L62.7,407.5L62.7,407.5c-0.1,0-0.5,0.4-0.9,0.9s0,1.4,0.9,1.4l0,0l0,0
							c0.9,0,1.3-0.9,0.9-1.4C63.2,407.9,62.8,407.5,62.7,407.5z"/>
						<path class="st0" d="M62,406.8c0-0.1-0.4-0.5-0.9-0.9s-1.4,0-1.4,0.9s0.9,1.3,1.4,0.9C61.6,407.3,62,407,62,406.8z"/>
						<path class="st0" d="M62.7,406.1L62.7,406.1L62.7,406.1L62.7,406.1L62.7,406.1c0.1,0,0.5-0.4,0.9-0.9c0.4-0.5,0-1.4-0.9-1.4
							l0,0l0,0c-0.9,0-1.3,0.9-0.9,1.4C62.2,405.7,62.6,406.1,62.7,406.1z"/>
						<path class="st0" d="M64.3,405.9c-0.5,0.4-0.9,0.8-0.9,0.9s0.4,0.5,0.9,0.9s1.4,0,1.4-0.9S64.9,405.5,64.3,405.9z"/>
					</g>
					<g>
						<path class="st0" d="M69.7,407.5L69.7,407.5L69.7,407.5L69.7,407.5L69.7,407.5c-0.1,0-0.5,0.4-0.9,0.9s0,1.4,0.9,1.4l0,0l0,0
							c0.9,0,1.3-0.9,0.9-1.4C70.3,407.9,69.9,407.5,69.7,407.5z"/>
						<path class="st0" d="M69,406.8c0-0.1-0.4-0.5-0.9-0.9s-1.4,0-1.4,0.9s0.9,1.3,1.4,0.9S69,407,69,406.8z"/>
						<path class="st0" d="M69.7,406.1L69.7,406.1L69.7,406.1L69.7,406.1L69.7,406.1c0.1,0,0.5-0.4,0.9-0.9s0-1.4-0.9-1.4l0,0l0,0
							c-0.9,0-1.3,0.9-0.9,1.4S69.6,406.1,69.7,406.1z"/>
						<path class="st0" d="M71.4,405.9c-0.5,0.4-0.9,0.8-0.9,0.9s0.4,0.5,0.9,0.9s1.4,0,1.4-0.9S71.9,405.5,71.4,405.9z"/>
					</g>
					<g>
						<path class="st0" d="M76.8,407.5L76.8,407.5L76.8,407.5L76.8,407.5L76.8,407.5c-0.1,0-0.5,0.4-0.9,0.9s0,1.4,0.9,1.4l0,0l0,0
							c0.9,0,1.3-0.9,0.9-1.4S76.9,407.5,76.8,407.5z"/>
						<path class="st0" d="M76.1,406.8c0-0.1-0.4-0.5-0.9-0.9s-1.4,0-1.4,0.9s0.9,1.3,1.4,0.9S76,407,76.1,406.8z"/>
						<path class="st0" d="M76.8,406.1L76.8,406.1L76.8,406.1L76.8,406.1L76.8,406.1c0.1,0,0.5-0.4,0.9-0.9s0-1.4-0.9-1.4l0,0l0,0
							c-0.9,0-1.3,0.9-0.9,1.4C76.2,405.7,76.6,406.1,76.8,406.1z"/>
						<path class="st0" d="M78.4,405.9c-0.5,0.4-0.9,0.8-0.9,0.9s0.4,0.5,0.9,0.9s1.4,0,1.4-0.9S78.9,405.5,78.4,405.9z"/>
					</g>
					<g>
						<path class="st0" d="M83.8,407.5L83.8,407.5L83.8,407.5L83.8,407.5L83.8,407.5c-0.1,0-0.5,0.4-0.9,0.9s0,1.4,0.9,1.4l0,0l0,0
							c0.9,0,1.3-0.9,0.9-1.4S83.9,407.5,83.8,407.5z"/>
						<path class="st0" d="M83.1,406.8c0-0.1-0.4-0.5-0.9-0.9s-1.4,0-1.4,0.9s0.9,1.3,1.4,0.9S83.1,407,83.1,406.8z"/>
						<path class="st0" d="M83.8,406.1L83.8,406.1L83.8,406.1L83.8,406.1L83.8,406.1c0.1,0,0.5-0.4,0.9-0.9s0-1.4-0.9-1.4l0,0l0,0
							c-0.9,0-1.3,0.9-0.9,1.4S83.7,406.1,83.8,406.1z"/>
						<path class="st0" d="M85.4,405.9c-0.5,0.4-0.9,0.8-0.9,0.9s0.4,0.5,0.9,0.9s1.4,0,1.4-0.9S86,405.5,85.4,405.9z"/>
					</g>
					<g>
						<path class="st0" d="M90.8,407.5L90.8,407.5L90.8,407.5L90.8,407.5L90.8,407.5c-0.1,0-0.5,0.4-0.9,0.9s0,1.4,0.9,1.4l0,0l0,0
							c0.9,0,1.3-0.9,0.9-1.4C91.4,407.9,91,407.5,90.8,407.5z"/>
						<path class="st0" d="M90.1,406.8c0-0.1-0.4-0.5-0.9-0.9s-1.4,0-1.4,0.9s0.9,1.3,1.4,0.9S90.1,407,90.1,406.8z"/>
						<path class="st0" d="M90.8,406.1L90.8,406.1L90.8,406.1L90.8,406.1L90.8,406.1c0.1,0,0.5-0.4,0.9-0.9s0-1.4-0.9-1.4l0,0l0,0
							c-0.9,0-1.3,0.9-0.9,1.4S90.7,406.1,90.8,406.1z"/>
						<path class="st0" d="M92.5,405.9c-0.5,0.4-0.9,0.8-0.9,0.9s0.4,0.5,0.9,0.9s1.4,0,1.4-0.9S93,405.5,92.5,405.9z"/>
					</g>
					<g>
						<path class="st0" d="M97.9,407.5L97.9,407.5L97.9,407.5L97.9,407.5L97.9,407.5c-0.1,0-0.5,0.4-0.9,0.9s0,1.4,0.9,1.4l0,0l0,0
							c0.9,0,1.3-0.9,0.9-1.4S98,407.5,97.9,407.5z"/>
						<path class="st0" d="M97.2,406.8c0-0.1-0.4-0.5-0.9-0.9s-1.4,0-1.4,0.9s0.9,1.3,1.4,0.9S97.1,407,97.2,406.8z"/>
						<path class="st0" d="M97.9,406.1L97.9,406.1L97.9,406.1L97.9,406.1L97.9,406.1c0.1,0,0.5-0.4,0.9-0.9s0-1.4-0.9-1.4l0,0l0,0
							c-0.9,0-1.3,0.9-0.9,1.4C97.3,405.7,97.7,406.1,97.9,406.1z"/>
						<path class="st0" d="M99.5,405.9c-0.5,0.4-0.9,0.8-0.9,0.9s0.4,0.5,0.9,0.9s1.4,0,1.4-0.9S100,405.5,99.5,405.9z"/>
					</g>
					<g>
						<path class="st0" d="M104.9,407.5L104.9,407.5L104.9,407.5L104.9,407.5L104.9,407.5c-0.1,0-0.5,0.4-0.9,0.9s0,1.4,0.9,1.4l0,0
							l0,0c0.9,0,1.3-0.9,0.9-1.4S105,407.5,104.9,407.5z"/>
						<path class="st0" d="M104.2,406.8c0-0.1-0.4-0.5-0.9-0.9s-1.4,0-1.4,0.9s0.9,1.3,1.4,0.9S104.2,407,104.2,406.8z"/>
						<path class="st0" d="M104.9,406.1L104.9,406.1L104.9,406.1L104.9,406.1L104.9,406.1c0.1,0,0.5-0.4,0.9-0.9s0-1.4-0.9-1.4l0,0
							l0,0c-0.9,0-1.3,0.9-0.9,1.4S104.8,406.1,104.9,406.1z"/>
						<path class="st0" d="M106.5,405.9c-0.5,0.4-0.9,0.8-0.9,0.9s0.4,0.5,0.9,0.9s1.4,0,1.4-0.9S107.1,405.5,106.5,405.9z"/>
					</g>
				</g>
			</g>
			<path class="st0" d="M135.9,370.5c-1.3-3.5-4.6-6.3-8.4-4.3c-1.4,0.7-2.4,1.6-2.7,3.3c-0.3,1.6,0.6,3.2,2.2,3.7
				c0.1,0,0.1,0,0.2,0c0.2,0.1,0.3,0.1,0.5,0.1c0.9,0,1.7-0.8,1.7-1.7c0-1-0.8-1.7-1.7-1.7c-0.3,0-0.6,0.1-0.9,0.3
				c-0.2-0.6-0.2-1.2,0-1.8c0.6-2.2,3.1-1.8,4.6-0.6c2.4,1.9,3.2,5.1,3.5,8c0.8,7,1.6,16.4-3.8,21.8c-0.1,0.1-0.3,0.3-0.4,0.4
				c-0.3-0.1-0.5-0.1-0.4,0s0.1,0.1,0.2,0.2c-0.1,0.1-0.1,0.1-0.2,0.2s0.1,0.1,0.4,0c0.1,0.1,0.3,0.3,0.4,0.4
				c5.5,5.4,4.6,14.8,3.8,21.8c-0.3,2.9-1.1,6.1-3.5,8c-1.5,1.2-4,1.6-4.6-0.6c-0.2-0.6-0.1-1.3,0-1.8c0.3,0.2,0.6,0.3,0.9,0.3
				c0.9,0,1.7-0.8,1.7-1.7c0-1-0.8-1.7-1.7-1.7c-0.2,0-0.4,0-0.5,0.1c-0.1,0-0.2,0-0.2,0c-1.6,0.5-2.4,2-2.2,3.7
				c0.3,1.7,1.3,2.6,2.7,3.3c3.8,1.9,7.1-0.9,8.4-4.3c1.5-4.1,1.6-9.4,1.4-13.7c-0.1-3.2-0.8-6.5-2.2-9.3c1.7,1.7,3.3,3.5,4.7,5.3
				c-0.7,2.7-0.8,5.6-0.8,8.2c0.1,3.4,0.6,7.5,3,10c2.5,2.7,4.9,0.8,5.5-2.3c1-4.9-1.7-9.4-4.4-13.3c-0.4-0.6-0.9-1.2-1.3-1.8
				c0.4-1.2,0.9-2.4,1.5-3.5c1.5-2.6,4.3-4.2,7.3-3.8c2.6,0.4,2.6,3.3,1.9,5.1c-0.5,1.1-1.7,1.9-2.3,1.1c0.8-0.2,1.3-0.9,1.3-1.7
				c0-1-0.8-1.7-1.7-1.7s-1.7,0.8-1.7,1.7l0,0c-0.1,0-0.1,0-0.1,0c0.3,2.4,3.5,3.9,5.5,2.6c1.6-1,1.6-3.7,0.7-5.2
				c-0.7-1.2-2.1-1.9-3.3-2.4c-3.4-1.5-6.8-0.4-9.1,2.4c-0.8,1-1.4,2.1-1.8,3.3c-2.4-2.7-5-5.2-7.7-7.6l0,0
				c-0.2-0.2-0.4-0.3-0.5-0.5l0,0l-0.1-0.1c-0.1-0.1-0.4-0.2-0.8-0.4c0.3-0.1,0.6-0.3,0.8-0.4l0.1-0.1l0,0c0.2-0.2,0.4-0.3,0.5-0.5
				l0,0c2.7-2.4,5.3-4.9,7.7-7.6c0.4,1.2,1,2.3,1.8,3.3c2.3,2.8,5.7,3.9,9.1,2.4c1.2-0.5,2.6-1.2,3.3-2.4c0.8-1.5,0.9-4.2-0.7-5.2
				c-2-1.3-5.2,0.2-5.5,2.6c0,0,0,0,0.1,0l0,0c0,1,0.8,1.7,1.7,1.7c1,0,1.7-0.8,1.7-1.7c0-0.8-0.6-1.5-1.3-1.7
				c0.6-0.8,1.8,0,2.3,1.1c0.7,1.8,0.7,4.7-1.9,5.1c-3,0.4-5.7-1.1-7.3-3.8c-0.6-1-1.1-2.2-1.5-3.5c0.5-0.6,0.9-1.2,1.3-1.8
				c2.7-3.9,5.4-8.4,4.4-13.3c-0.6-3.1-2.9-5.1-5.5-2.3c-2.4,2.6-3,6.6-3,10c-0.1,2.6,0.1,5.5,0.8,8.2c-1.5,1.9-3.1,3.6-4.7,5.3
				c1.5-2.8,2.1-6.1,2.2-9.3C137.5,379.8,137.4,374.6,135.9,370.5z M144.7,415.3c1.3,2.6,1.4,6.3,0.5,9c-0.2,0.6-0.6,1.2-1.1,1.7
				c-0.7,0.8-0.8,0.1-1.2-0.6c-0.7-1.2-1.1-2.6-1.4-3.9c-0.9-3.5-0.9-7.7,0-11.5C142.7,411.7,143.7,413.4,144.7,415.3z M141.5,374.4
				c0.3-1.3,0.7-2.7,1.4-3.9c0.4-0.7,0.4-1.4,1.2-0.6c0.5,0.5,0.9,1,1.1,1.7c1,2.7,0.9,6.4-0.5,9c-1,1.9-2,3.7-3.2,5.4
				C140.5,382.1,140.6,377.9,141.5,374.4z"/>
			<path class="st0" d="M-109.6,423.1c1.3,3.4,4.5,6,8.1,4.2c1.4-0.7,2.3-1.6,2.6-3.2c0.3-1.6-0.6-3.1-2.1-3.5c-0.1,0-0.1,0-0.2,0
				c-0.2-0.1-0.3-0.1-0.5-0.1c-0.9,0-1.7,0.7-1.7,1.7c0,0.9,0.7,1.7,1.7,1.7c0.3,0,0.6-0.1,0.9-0.3c0.2,0.6,0.2,1.2,0,1.8
				c-0.6,2.1-3,1.7-4.4,0.5c-2.3-1.8-3.1-4.9-3.4-7.7c-0.8-6.7-1.6-15.7,3.7-20.9c0.1-0.1,0.3-0.3,0.4-0.4c0.3,0.1,0.5,0.1,0.4,0
				s-0.1-0.1-0.2-0.2c0.1-0.1,0.1-0.1,0.2-0.2s-0.1-0.1-0.4,0c-0.1-0.1-0.3-0.3-0.4-0.4c-5.3-5.2-4.5-14.2-3.7-20.9
				c0.3-2.8,1.1-5.9,3.4-7.7c1.4-1.2,3.8-1.6,4.4,0.5c0.2,0.6,0.1,1.2,0,1.8c-0.3-0.2-0.6-0.3-0.9-0.3c-0.9,0-1.7,0.7-1.7,1.7
				c0,0.9,0.7,1.7,1.7,1.7c0.2,0,0.4,0,0.5-0.1c0.1,0,0.1,0,0.2,0c1.5-0.5,2.4-2,2.1-3.5c-0.3-1.6-1.2-2.5-2.6-3.2
				c-3.6-1.9-6.8,0.8-8.1,4.2c-1.5,4-1.6,9-1.4,13.2c0.1,3.1,0.7,6.2,2.1,8.9c-1.6-1.6-3.1-3.3-4.5-5.1c0.7-2.6,0.8-5.4,0.8-7.9
				c-0.1-3.3-0.6-7.2-2.9-9.7c-2.4-2.6-4.7-0.8-5.3,2.2c-1,4.8,1.6,9.1,4.2,12.8c0.4,0.6,0.8,1.2,1.3,1.7c-0.4,1.2-0.9,2.3-1.4,3.3
				c-1.5,2.5-4.1,4-7,3.6c-2.5-0.3-2.5-3.1-1.8-4.9c0.4-1.1,1.6-1.8,2.2-1c-0.7,0.2-1.3,0.8-1.3,1.6c0,0.9,0.7,1.7,1.7,1.7
				c0.9,0,1.7-0.7,1.7-1.7l0,0c0.1,0,0.1,0,0.1,0c-0.3-2.3-3.4-3.7-5.3-2.5c-1.6,1-1.5,3.5-0.7,5c0.6,1.1,2,1.8,3.1,2.3
				c3.2,1.5,6.5,0.4,8.7-2.3c0.8-0.9,1.3-2,1.8-3.2c2.3,2.6,4.8,5,7.4,7.3l0,0c0.2,0.2,0.3,0.3,0.5,0.5l0,0l0.1,0.1
				c0.1,0.1,0.4,0.2,0.7,0.3c-0.3,0.1-0.6,0.3-0.7,0.3l-0.1,0.1l0,0c-0.2,0.2-0.3,0.3-0.5,0.5l0,0c-2.6,2.3-5.1,4.7-7.4,7.3
				c-0.4-1.2-1-2.2-1.8-3.2c-2.2-2.7-5.5-3.7-8.7-2.3c-1.1,0.5-2.5,1.2-3.1,2.3c-0.8,1.4-0.9,4,0.7,5c2,1.2,5-0.2,5.3-2.5
				c0,0,0,0-0.1,0l0,0c0-0.9-0.7-1.7-1.7-1.7c-0.9,0-1.7,0.7-1.7,1.7c0,0.8,0.6,1.5,1.3,1.6c-0.6,0.8-1.8,0-2.2-1
				c-0.7-1.7-0.7-4.5,1.8-4.9c2.9-0.4,5.5,1.1,7,3.6c0.6,1,1.1,2.1,1.4,3.3c-0.4,0.6-0.9,1.1-1.3,1.7c-2.6,3.7-5.1,8-4.2,12.8
				c0.6,3,2.8,4.9,5.3,2.2c2.3-2.5,2.9-6.4,2.9-9.7c0.1-2.5,0-5.3-0.8-7.9c1.4-1.8,2.9-3.5,4.5-5.1c-1.4,2.7-2,5.8-2.1,8.9
				C-111.2,414-111.1,419.1-109.6,423.1z M-118.1,380c-1.3-2.5-1.4-6-0.5-8.7c0.2-0.6,0.6-1.1,1.1-1.6c0.7-0.7,0.7-0.1,1.1,0.6
				c0.7,1.1,1,2.5,1.4,3.7c0.9,3.3,0.9,7.4,0,11.1C-116.2,383.5-117.2,381.8-118.1,380z M-115,419.3c-0.3,1.3-0.7,2.6-1.4,3.7
				c-0.4,0.7-0.4,1.3-1.1,0.6c-0.5-0.5-0.8-1-1.1-1.6c-0.9-2.6-0.8-6.1,0.5-8.7c0.9-1.8,2-3.5,3.1-5.1
				C-114.1,411.9-114.2,415.9-115,419.3z"/>
			<g>
				<path class="st0" d="M17.8,347.3L17.8,347.3L17.8,347.3L17.8,347.3L17.8,347.3c-0.3,0-1.3,1-2.1,2.3c-0.9,1.3,0,3.4,2.1,3.4l0,0
					l0,0c2.2,0,3-2.1,2.1-3.4S18.1,347.4,17.8,347.3z"/>
				<path class="st0" d="M16.1,345.6c0-0.3-1-1.3-2.3-2.2s-3.3,0-3.4,2.2c0,2.2,2.1,3,3.4,2.2C15.1,346.9,16,346,16.1,345.6z"/>
				<path class="st0" d="M17.8,343.9L17.8,343.9L17.8,343.9L17.8,343.9L17.8,343.9c0.3,0,1.3-1,2.1-2.3c0.9-1.3,0-3.4-2.1-3.4l0,0
					l0,0c-2.2,0-3,2.1-2.1,3.4C16.5,343,17.4,343.9,17.8,343.9z"/>
				<path class="st0" d="M21.7,343.5c-1.3,0.9-2.2,1.8-2.3,2.2c0,0.3,1,1.3,2.3,2.2s3.3,0,3.4-2.2C25,343.5,23,342.6,21.7,343.5z"/>
			</g>
		</g>
	</g>
	<text transform="matrix(1 0 0 1 -78.7281 396.2099)" class="st0 st2 st3">Питомник растений</text>
	<text transform="matrix(1 0 0 1 -39.7983 432.6648)" class="st0 st4 st5">Посульська флора</text>
</g>
<g id="Слой_3">
</g>
</svg>
